<svg xmlns="http://www.w3.org/2000/svg" viewBox="0 0 52 52"><defs><style>.a,.b{fill:none;stroke:#fff;stroke-miterlimit:10;}.a{stroke-width:0.75px;}.b{stroke-width:0.5px;}.c{fill:#fff;}</style></defs><title>additifs-mobile</title><path class="a" d="M25.6,51.2s5.8,0,7.4-.5c1.3-.4,1.2-2.4,1.2-2.4V25.2s-.3-1.4-1.1-1.4a1.72,1.72,0,0,0-.2-.9h1v-.4H32.8v-1h1.1V19.7h-.3V5.1s.1-.5-.2-.5S31,3.7,31,2.2V1a.29.29,0,0,0-.3-.3H21.3A.29.29,0,0,0,21,1V2.2c0,1.4-2.1,2.4-2.4,2.4s-.2.5-.2.5V19.7h-.3v1.8h1.1v1H18.1v.4h1a1.72,1.72,0,0,0-.2.9c-.8,0-1.1,1.4-1.1,1.4V48.3s0,2,1.2,2.4c1.6.5,7.4.5,7.4.5Z"/><line class="b" x1="18.6" y1="4.6" x2="33.4" y2="4.6"/><line class="b" x1="18.4" y1="19.8" x2="33.6" y2="19.8"/><line class="b" x1="19.2" y1="21.6" x2="32.8" y2="21.6"/><line class="b" x1="18.9" y1="23.8" x2="33.1" y2="23.8"/><path class="b" d="M17.8,47.6s.4.9,8.5.9,7.9-.7,7.9-.7"/><path class="b" d="M17.8,25.9s2.1.2,8.2.2,8.2-.2,8.2-.2"/><path class="c" d="M26.7,36h3.2v1.4H26.7V41H25.2V37.4H22V36h3.2V32.7h1.5Z"/></svg>