<svg xmlns="http://www.w3.org/2000/svg" viewBox="0 0 52 52"><defs><style>.a,.b{fill:none;stroke:#fff;stroke-miterlimit:10;}.a{stroke-width:0.75px;}.b{stroke-width:0.5px;}.c{fill:#fff;}</style></defs><title>bases-mobile</title><path class="a" d="M25.9,50.9s6.8.1,8.1-1.3c2.1-2.2,1.8-6.7,1.8-6.7V18.1a4,4,0,0,0-.9-2.4c-1-1-5.5-5.8-5.5-5.8v-1a.58.58,0,0,0-.6-.4V8.1s.9,0,1.2-.5.1-5-.4-5.6S28.1,1,26,1s-3,.3-3.6,1-.8,5.1-.4,5.6a1.71,1.71,0,0,0,1.2.5v.4a.74.74,0,0,0-.6.4v.9s-4.5,4.9-5.5,5.8a3.36,3.36,0,0,0-.9,2.4V42.8s-.4,4.5,1.8,6.7C19.4,50.9,25.9,50.9,25.9,50.9Z"/><path class="b" d="M22.7,9.9A17.42,17.42,0,0,1,26,9.6a16.16,16.16,0,0,1,3.3.3"/><path class="b" d="M23.3,8.5A22.18,22.18,0,0,1,26,8.3a22.18,22.18,0,0,1,2.7.2"/><path class="b" d="M28.7,8.2V7.5A10.51,10.51,0,0,0,26,7.3a10.51,10.51,0,0,0-2.7.2v.7"/><path class="b" d="M22,7.7S21.5,7,26,7s4,.7,4,.7"/><path class="b" d="M16.2,21.1a64.42,64.42,0,0,1,9.8-.5,64.42,64.42,0,0,1,9.8.5"/><path class="b" d="M16.2,42.9a83.86,83.86,0,0,0,9.8.7,86.21,86.21,0,0,0,9.8-.7"/><path class="c" d="M17.8,31.4v1.7h-.6V28.8h1.6a1.37,1.37,0,0,1,1.1.4,1.16,1.16,0,0,1,.4,1,1.28,1.28,0,0,1-.4,1,1.8,1.8,0,0,1-1.1.3h-1Zm0-.5h1a1.45,1.45,0,0,0,.7-.2c.2-.1.2-.4.2-.6a.73.73,0,0,0-.9-.8H17.7v1.6Z"/><path class="c" d="M24.3,32.5a1.47,1.47,0,0,1-.6.5,2.92,2.92,0,0,1-.9.2,2,2,0,0,1-.9-.2,1.34,1.34,0,0,1-.6-.7,1.8,1.8,0,0,1-.3-1.2v-.4a2.07,2.07,0,0,1,.5-1.5,1.43,1.43,0,0,1,1.3-.5,1.8,1.8,0,0,1,1.1.3,1.6,1.6,0,0,1,.5,1h-.6a.92.92,0,0,0-1-.9,1,1,0,0,0-.9.4,2.13,2.13,0,0,0-.3,1.2v.4a2.13,2.13,0,0,0,.3,1.2,1,1,0,0,0,.9.4,1.27,1.27,0,0,0,.6-.1.52.52,0,0,0,.4-.2v-1h-1v-.5h1.6v1.6Z"/><path class="c" d="M25.3,33.4h-.5l1.8-4.7h.5Z"/><path class="c" d="M29.2,32.3l1.2-3.6H31L29.4,33h-.5l-1.6-4.3H28Z"/><path class="c" d="M34.8,32.5a1.47,1.47,0,0,1-.6.5,2.92,2.92,0,0,1-.9.2,2,2,0,0,1-.9-.2,1.34,1.34,0,0,1-.6-.7,2,2,0,0,1-.2-1.1v-.4a2.07,2.07,0,0,1,.5-1.5,1.43,1.43,0,0,1,1.3-.5,1.8,1.8,0,0,1,1.1.3,1.6,1.6,0,0,1,.5,1h-.6a.92.92,0,0,0-1-.9,1,1,0,0,0-.9.4,2.13,2.13,0,0,0-.3,1.2v.4a2.13,2.13,0,0,0,.3,1.2,1,1,0,0,0,.9.4,1.27,1.27,0,0,0,.6-.1.52.52,0,0,0,.4-.2v-1h-1V31H35v1.5Z"/></svg>