<svg xmlns="http://www.w3.org/2000/svg" viewBox="0 0 52 52"><defs><style>.a,.b{fill:none;stroke:#fff;}.a{stroke-linecap:round;stroke-linejoin:round;stroke-width:0.75px;}.b{stroke-miterlimit:10;stroke-width:0.5px;}</style></defs><title>boissons-mobile</title><path class="a" d="M41.1,4a.38.38,0,0,0,.1-.6c-.2-.2-.4-.3-.6-.1L35.4,6.8c-.1.1-.2.2-.2.3l-.9,8h-10l5.6-5.6A11.21,11.21,0,1,0,14,25.3l5.5-5.5,2.6,29H37.5L40.6,15H35.2l.9-7.7Z"/><polygon class="b" points="19.1 15 22.1 48.8 37.5 48.8 40.6 15 19.1 15"/><path class="b" d="M19.5,20.1c2.6,0,2.6,3.4,5.1,3.4s2.6-3.4,5.1-3.4,2.6,3.4,5.1,3.4,2.6-3.4,5.1-3.4"/><path class="b" d="M33.5,22.5,35.2,7c0-.1.1-.2.2-.3l5.2-3.5c.2-.1.5-.1.6.1s.1.5-.1.6l-5,3.4L34.4,22.6"/><line class="b" x1="21.9" y1="46.5" x2="37.7" y2="46.5"/><path class="b" d="M19.5,19.8,14,25.3A11.24,11.24,0,0,1,29.9,9.4L24.3,15"/><path class="b" d="M15.8,23.5A8.7,8.7,0,0,1,28.1,11.2"/><line class="b" x1="19.2" y1="15" x2="15.7" y2="11.4"/><line class="b" x1="19.3" y1="17.6" x2="13.3" y2="17.6"/><line class="b" x1="22" y1="15" x2="22" y2="8.7"/></svg>