<svg xmlns="http://www.w3.org/2000/svg" viewBox="0 0 52 52"><defs><style>.a,.b{fill:none;stroke:#fff;stroke-miterlimit:10;}.a{stroke-width:0.75px;}.b{stroke-width:0.5px;}.c{fill:#fff;}</style></defs><title>boosters-mobile</title><path class="a" d="M25.6,51.2s5.8,0,7.4-.5c1.3-.4,1.2-2.4,1.2-2.4V25.2s-.3-1.4-1.1-1.4a1.72,1.72,0,0,0-.2-.9h1v-.4H32.8v-1h1.1V19.7h-.3V5.1s.1-.5-.2-.5S31,3.7,31,2.2V1a.29.29,0,0,0-.3-.3H21.3A.29.29,0,0,0,21,1V2.2c0,1.4-2.1,2.4-2.4,2.4s-.2.5-.2.5V19.7h-.3v1.8h1.1v1H18.1v.4h1a1.72,1.72,0,0,0-.2.9c-.8,0-1.1,1.4-1.1,1.4V48.3s0,2,1.2,2.4c1.6.5,7.4.5,7.4.5Z"/><line class="b" x1="18.6" y1="4.6" x2="33.4" y2="4.6"/><line class="b" x1="18.4" y1="19.8" x2="33.6" y2="19.8"/><line class="b" x1="19.2" y1="21.6" x2="32.8" y2="21.6"/><line class="b" x1="18.9" y1="23.8" x2="33.1" y2="23.8"/><path class="b" d="M17.8,47.6s.4.9,8.5.9,7.9-.7,7.9-.7"/><path class="b" d="M17.8,25.9s2.1.2,8.2.2,8.2-.2,8.2-.2"/><path class="c" d="M25.7,36.7H22.1v-.5L24,34a3.28,3.28,0,0,0,.6-.8,1.42,1.42,0,0,0,.2-.6,1,1,0,0,0-1-1,1,1,0,0,0-.8.3,1.14,1.14,0,0,0-.3.8H22a1.66,1.66,0,0,1,.5-1.2,1.9,1.9,0,0,1,1.3-.5,1.59,1.59,0,0,1,1.2.4,1.37,1.37,0,0,1,.4,1.1,3.36,3.36,0,0,1-1,2l-1.5,1.6h2.8Z"/><path class="c" d="M29.9,34.3a3,3,0,0,1-.4,1.8,1.71,1.71,0,0,1-2.6,0,3,3,0,0,1-.4-1.8v-.9a3,3,0,0,1,.4-1.8,1.71,1.71,0,0,1,2.6,0,3,3,0,0,1,.4,1.8Zm-.7-1a2.27,2.27,0,0,0-.3-1.3,1,1,0,0,0-1.6,0,2.27,2.27,0,0,0-.3,1.3v1.1a2.27,2.27,0,0,0,.3,1.3.81.81,0,0,0,.8.4.91.91,0,0,0,.8-.4,2.27,2.27,0,0,0,.3-1.3Z"/><path class="c" d="M21.5,39.2l1.8,4.5,1.8-4.5H26v5.5h-.7V42.5l.1-2.3-1.8,4.5H23l-1.8-4.5.1,2.3v2.2h-.7V39.2Z"/><path class="c" d="M31.5,44.1a1.56,1.56,0,0,1-.8.6,3.73,3.73,0,0,1-1.2.2,2.13,2.13,0,0,1-1.2-.3,1.76,1.76,0,0,1-.8-.9,2.9,2.9,0,0,1-.3-1.4v-.5a2.71,2.71,0,0,1,.6-1.9,1.86,1.86,0,0,1,1.6-.7,2.12,2.12,0,0,1,1.4.4,1.49,1.49,0,0,1,.6,1.3h-.7a1.22,1.22,0,0,0-1.3-1.1,1.29,1.29,0,0,0-1.1.5,2.08,2.08,0,0,0-.4,1.5v.5a2.41,2.41,0,0,0,.4,1.5,1.43,1.43,0,0,0,1.2.6,1.48,1.48,0,0,0,.7-.1,2.19,2.19,0,0,0,.5-.3V42.8H29.4V42h2v2.1Z"/></svg>