<svg xmlns="http://www.w3.org/2000/svg" viewBox="0 0 52 52"><defs><style>.a,.b{fill:none;stroke:#fff;stroke-linecap:round;stroke-linejoin:round;}.a{stroke-width:0.5px;}.b{stroke-width:0.75px;}</style></defs><title>boxs-bf-mobile</title><path class="a" d="M27.7,41l-9-.4a1.43,1.43,0,0,1-1.4-1.4V12.8a1.43,1.43,0,0,1,1.4-1.4l9-.4c.8,0,1.4,1,1.4,1.8V39.2A1.67,1.67,0,0,1,27.7,41Z"/><path class="a" d="M27.7,11l5.5.4a1.43,1.43,0,0,1,1.4,1.4V39.2a1.43,1.43,0,0,1-1.4,1.4l-5.5.4"/><path class="a" d="M32.8,13.3c.8.1,1.4,1.1,1.4,2.3a2.21,2.21,0,0,1-1.4,2.3"/><path class="a" d="M31.4,15.6a2.21,2.21,0,0,1,1.4-2.3h-.2c-.9,0-1.6,1-1.6,2.3s.7,2.3,1.6,2.3h.2A2.3,2.3,0,0,1,31.4,15.6Z"/><ellipse class="a" cx="32.8" cy="15.6" rx="1.4" ry="2.3"/><path class="a" d="M23.5,35V28.8a2.43,2.43,0,0,1,2.4-2.4h-.3a2.43,2.43,0,0,0-2.4,2.4V35a2.43,2.43,0,0,0,2.4,2.4h.3A2.37,2.37,0,0,1,23.5,35Z"/><path class="a" d="M25.9,26.4h0a2.43,2.43,0,0,1,2.4,2.4V35a2.43,2.43,0,0,1-2.4,2.4h0"/><path class="a" d="M28.2,35V28.8a2.4,2.4,0,1,0-4.8,0V35a2.43,2.43,0,0,0,2.4,2.4A2.37,2.37,0,0,0,28.2,35Z"/><path class="b" d="M27.7,41l-9-.4a1.43,1.43,0,0,1-1.4-1.4V12.8a1.43,1.43,0,0,1,1.4-1.4l9-.4,5.5.4a1.43,1.43,0,0,1,1.4,1.4V39.2a1.43,1.43,0,0,1-1.4,1.4Z"/></svg>