<svg xmlns="http://www.w3.org/2000/svg" viewBox="0 0 52 52"><defs><style>.a{fill:#fff;}.b,.c{fill:none;stroke:#fff;stroke-linecap:round;stroke-linejoin:round;}.b{stroke-width:0.5px;}.c{stroke-width:0.75px;}</style></defs><title>boxs-et-batteries-mobile</title><path class="a" d="M31.1,7.4a5.25,5.25,0,0,1,1.7.1v2.7c.4,0,.5.2.5.2v.2l.2.2V12l-.2.2v.6c.6,0,.7.2.7.2v3.5a.39.39,0,0,1,.4.4V44.2a8.28,8.28,0,0,1-3.4.5h-.6a8.28,8.28,0,0,1-3.4-.5V16.8a.39.39,0,0,1,.4-.4V12.9s.1-.2.7-.2v-.6l-.2-.1V10.8l.2-.2v-.2s.1-.2.5-.2V7.5a5.25,5.25,0,0,1,1.7-.1v.3h1c-.2,0-.2-.2-.2-.3m0-.8c-.2,0-.3.1-.5.2a.76.76,0,0,0-.5-.2c-1.8,0-2.2.1-2.4.6,0,.1-.1.2-.1.3V9.6a2.65,2.65,0,0,0-.5.6h0a.76.76,0,0,0-.2.5v1.6a.78.78,0,0,0-.4.4.37.37,0,0,0-.1.3v3a1.23,1.23,0,0,0-.4.8V44.1a.55.55,0,0,0,.4.6,8.68,8.68,0,0,0,3.8.6h.6a8.94,8.94,0,0,0,3.8-.6.82.82,0,0,0,.4-.6V16.8a.91.91,0,0,0-.4-.8V13a.37.37,0,0,0-.1-.3.78.78,0,0,0-.4-.4V10.8a.76.76,0,0,0-.2-.5h0a1.33,1.33,0,0,0-.5-.6V7.5a.37.37,0,0,0-.1-.3c0-.5-.4-.6-2.2-.6Z"/><path class="b" d="M27,16.8s1.4.1,3.6.1,3.6-.1,3.6-.1"/><path class="b" d="M27.4,16.5a19.57,19.57,0,0,0,3.3.1,19.57,19.57,0,0,0,3.3-.1"/><path class="b" d="M27.4,13s-.1.1,3.3.1S34,13,34,13"/><line class="b" x1="28.1" y1="12.8" x2="33.3" y2="12.8"/><line class="b" x1="28.1" y1="12.2" x2="33.3" y2="12.2"/><line class="b" x1="27.9" y1="12" x2="33.5" y2="12"/><line class="b" x1="27.9" y1="10.8" x2="33.5" y2="10.8"/><line class="b" x1="28.1" y1="10.6" x2="33.3" y2="10.6"/><line class="b" x1="28.6" y1="10.2" x2="32.8" y2="10.2"/><line class="b" x1="27.9" y1="11.7" x2="33.5" y2="11.7"/><line class="b" x1="27.9" y1="11" x2="33.5" y2="11"/><line class="b" x1="27.9" y1="11.2" x2="33.5" y2="11.2"/><line class="b" x1="27.9" y1="11.5" x2="33.5" y2="11.5"/><path class="b" d="M32.3,14.8a1.6,1.6,0,1,1-1.6-1.6A1.58,1.58,0,0,1,32.3,14.8Z"/><path class="b" d="M27,43.8c.9.6,3.6.5,3.6.5s2.7.1,3.6-.5"/><path class="a" d="M43.8,11.9c4.3,0,4.2.3,4.2.3V43.6c-.9,1-3.1,1.1-3.9,1.1h-.6c-.8,0-3-.1-3.9-1.1V12.2s0-.3,4.2-.3m0-.8c-4.3,0-4.5.3-4.8.6a.6.6,0,0,0-.1.4h0V43.5a.76.76,0,0,0,.2.5c1,1.1,3.2,1.3,4.5,1.3h.6c1.2,0,3.4-.2,4.5-1.3a.76.76,0,0,0,.2-.5V12.2h0c0-.2,0-.3-.1-.4-.4-.4-.6-.7-5-.7Z"/><path class="b" d="M42.2,12.2H39.7s-.2.3,4.2.3,4.2-.3,4.2-.3H45.6"/><path class="b" d="M45.5,12.2h0a3.48,3.48,0,0,0-1.6-.2,12.58,12.58,0,0,0-1.6.1h0"/><path class="b" d="M45.5,12.2a4.58,4.58,0,0,1-1.6.1,12.58,12.58,0,0,1-1.6-.1"/><path class="b" d="M46,19.1a2.2,2.2,0,1,1-2.2-2.2A2.1,2.1,0,0,1,46,19.1Z"/><path class="b" d="M48,42.9c-1.1,1.2-4.2,1.1-4.2,1.1s-3.1.1-4.2-1.1"/><path class="a" d="M21.3,15.3a.69.69,0,0,1,.3.4V44s-.1.4-.4.5a24.46,24.46,0,0,1-4.2.2c-1.2,0-2.6,0-4-.1-4.4-.3-8.4-.6-8.4-.6s-.5-.2-.6-.6V15.7a.65.65,0,0,1,.3-.5h17m0-.7H4.3c-.2,0-.3.1-.4.1a1.25,1.25,0,0,0-.6,1.1V43.6a1.24,1.24,0,0,0,1,.9h.1l8.4.6c1.4.1,2.7.1,4.1.1a37,37,0,0,0,4.5-.2,1.21,1.21,0,0,0,.8-1V15.6a1.13,1.13,0,0,0-.7-.9.22.22,0,0,0-.2-.2Z"/><path class="c" d="M4.4,15.3V12.7a.74.74,0,0,1,.6-.4c.4-.1,7.9,0,7.9,0a1.21,1.21,0,0,1,.8.5v2.6"/><line class="b" x1="4" y1="17" x2="21.6" y2="17"/><path class="b" d="M21.2,35.9a1,1,0,0,1-.9,1.1h-.5a1.27,1.27,0,0,1-1.1-1.1V27.3a1.38,1.38,0,0,1,1.1-1.2h.4a1,1,0,0,1,1,1Z"/><line class="b" x1="4" y1="15.7" x2="21.6" y2="15.7"/><path class="b" d="M21.6,42.7a5.54,5.54,0,0,1-2,.2,56.9,56.9,0,0,1-6.6,0c-4.4-.3-8.2-.7-8.2-.7s-.7,0-.8-.3"/><path class="b" d="M21.6,42.7a5.54,5.54,0,0,1-2,.2,56.9,56.9,0,0,1-6.6,0c-4.4-.3-8.2-.7-8.2-.7s-.7,0-.8-.3"/><path class="b" d="M21.6,44a5.54,5.54,0,0,1-2,.2,56.9,56.9,0,0,1-6.6,0c-4.4-.3-8.2-.7-8.2-.7s-.7-.1-.8-.3"/><path class="b" d="M19,39.5l1.8-.1a.49.49,0,0,1,.3.1,4.15,4.15,0,0,1,0,1.2s0,.1-.2.2A12.75,12.75,0,0,1,19,41s-.5.2-.5-.8C18.6,39.5,18.8,39.6,19,39.5Z"/><path class="b" d="M18.8,22.1s-1.7-.1-1.7-1.5,1.7-1.5,1.7-1.5h2.5s.3,0,.3.5v2.1a.39.39,0,0,1-.4.4Z"/><path class="b" d="M4.4,12.7H5.5s.4-.5.6,0H8.9s.3-.6.6,0h2.6s.2-.5.7,0h.9"/><line class="b" x1="5.5" y1="12.7" x2="5.5" y2="15.3"/><line class="b" x1="6.1" y1="12.7" x2="6.1" y2="15.3"/><line class="b" x1="8.9" y1="12.7" x2="8.9" y2="15.3"/><line class="b" x1="9.5" y1="12.7" x2="9.5" y2="15.3"/><line class="b" x1="12.1" y1="12.7" x2="12.1" y2="15.3"/><line class="b" x1="12.8" y1="12.7" x2="12.8" y2="15.3"/><line class="b" x1="13.3" y1="17" x2="13.3" y2="43"/></svg>