<svg xmlns="http://www.w3.org/2000/svg" viewBox="0 0 52 52"><defs><style>.a,.b{fill:none;stroke:#fff;stroke-linecap:round;stroke-linejoin:round;}.a{stroke-width:0.75px;}.b{stroke-width:0.5px;}</style></defs><title>cartouches-pods-mobile</title><path class="a" d="M35.4,30.9a4.42,4.42,0,0,1-.8.3v7.1H17.4V31.2a1.46,1.46,0,0,1-.8-.3s.5-13.9,2.6-15.5S26,13.7,26,13.7s4.7,0,6.8,1.7S35.4,30.9,35.4,30.9Z"/><path class="b" d="M21,26.2s.4-1.1,5-1.1,5,1.1,5,1.1"/><path class="b" d="M28.3,34.7H23.8a.43.43,0,0,1-.4-.4V33.1a.43.43,0,0,1,.4-.4h4.5a.43.43,0,0,1,.4.4v1.2C28.6,34.5,28.5,34.7,28.3,34.7Z"/><circle class="b" cx="24.4" cy="33.7" r="0.5"/><circle class="b" cx="26" cy="33.7" r="0.5"/><circle class="b" cx="27.6" cy="33.7" r="0.5"/><path class="b" d="M20.5,38.3c0-8.1,1.1-24,1.1-24"/><path class="b" d="M31.5,38.3c0-8.1-1.1-24-1.1-24"/><path class="b" d="M17.4,31.2a58.46,58.46,0,0,0,8.3.3,74.25,74.25,0,0,0,8.8-.3"/></svg>