<svg xmlns="http://www.w3.org/2000/svg" viewBox="0 0 52 52"><defs><style>.a{fill:#fff;}.b,.c{fill:none;stroke:#fff;}.b{stroke-miterlimit:10;stroke-width:0.5px;}.c{stroke-linecap:round;stroke-linejoin:round;stroke-width:0.25px;}</style></defs><title>kits-mobile</title><path class="a" d="M17.1,16.8c2.1,0,2,.2,2,.2v3.4h.1a4.48,4.48,0,0,1,1.1.1.65.65,0,0,1,.3.5V50.2s0,.9-3.5.9-3.5-.9-3.5-.9V21s0-.2.3-.5a3.75,3.75,0,0,1,1.1-.1h.1V17c-.1,0-.2-.2,2-.2h0m0,34.3h0m0-34.8h0c-2,0-2.3.2-2.5.4a.37.37,0,0,0-.1.3h0v2.9a5.38,5.38,0,0,0-.8.1.1.1,0,0,0-.1.1,1.12,1.12,0,0,0-.5.9V50.2c0,.5.5,1.4,4,1.4h.1c3.5,0,4-.9,4-1.4V21a1.12,1.12,0,0,0-.5-.9.1.1,0,0,1-.1-.1,2,2,0,0,0-.8-.1V17h0a.37.37,0,0,0-.1-.3c-.3-.2-.6-.4-2.6-.4Z"/><path class="a" d="M38.2,19.6c.2,0,.1.2.1.2V48.4a2.11,2.11,0,0,1-.8.6A47.76,47.76,0,0,1,33,50.8a17.53,17.53,0,0,1-2.5.3H30l-3.4-1c-.2-.1-.2-.2-.2-.2V19.6H38.2m0-.5H25.9V49.8a.64.64,0,0,0,.6.7l3.4,1h.6a10.07,10.07,0,0,0,2.6-.3h0c1.9-.6,4.5-1.8,4.6-1.8a2.46,2.46,0,0,0,1-.8l.1-.1V19.8a1.09,1.09,0,0,0-.1-.5.59.59,0,0,0-.5-.2Z"/><path class="b" d="M26.4,19.6V6.1s0-.7,4.2-.7,4.2.7,4.2.7V19.6"/><path class="b" d="M32.7,5V.9S32.6.5,30.6.5h-.2c-2,0-2.1.4-2.1.4V5"/><path class="c" d="M20.7,22.2h0V20.7a.65.65,0,0,0-.3-.5h0a4.48,4.48,0,0,0-1.1-.1h0V16.7h0a.1.1,0,0,0-.1-.1c-.1-.1-.6-.2-2-.2h-.1c-1,0-1.5.1-1.8.1-.1,0-.2.1-.3.1l-.1.1h0v3.4h0a4.48,4.48,0,0,0-1.1.1h0a.65.65,0,0,0-.3.5V50.4s0,.3.5.5a7.9,7.9,0,0,0,3.1.5h.1c1.8,0,2.7-.2,3.1-.5s.5-.5.5-.5l-.1-28.2Zm0,0a1.73,1.73,0,0,1-.7.1c-.5,0-1.4.1-2.9.1-1.9,0-2.7-.1-3.2-.1a.44.44,0,0,1-.3-.1h0v-1a2,2,0,0,0,.5.1,20.37,20.37,0,0,0,3,.1c1.7,0,2.6-.1,3-.1a2,2,0,0,0,.5-.1v1ZM17.1,27a15.87,15.87,0,0,1-3.1-.2v-.1a24.49,24.49,0,0,0,3.1.2,11.7,11.7,0,0,0,3-.2v.1A16.17,16.17,0,0,1,17.1,27Zm2.9-.4a12.57,12.57,0,0,1-2.9.2c-1.1,0-1.9-.1-2.4-.1-.3,0-.4-.1-.6-.1H14s0-.1.2-.2a2.33,2.33,0,0,1,1.1-.2v.2h0a.44.44,0,0,0,.3.1,5,5,0,0,0,1.5.1c.8,0,1.2-.1,1.5-.1a.35.35,0,0,0,.2-.1v-.1h0v-.2a2.33,2.33,0,0,1,1.1.2c.1.1.2.1.2.2A.1.1,0,0,1,20,26.6Zm-2.9-1.9a14.78,14.78,0,0,0,1.6-.1v1.6h0v.2a.44.44,0,0,1-.3.1c-.2,0-.6.1-1.2.1.2-.1.4-.2.4-.5a.5.5,0,0,0-1,0,.66.66,0,0,0,.4.5c-.7,0-1.1-.1-1.4-.1-.1,0-.2,0-.2-.1h0v-.2h0V24.6C15.5,24.6,16.2,24.7,17.1,24.7Zm0,1.8a.4.4,0,1,1,.4-.4A.43.43,0,0,1,17.1,26.5Zm1.7-2a1,1,0,0,0-.4.1c-.3,0-.7.1-1.2.1a4.89,4.89,0,0,1-1.3-.1,1.21,1.21,0,0,1-.5-.1l-.2-.1v-.5h3.6v.6Zm-3.4-.8h3.4v.1l-3.4-.1Zm3.3-.1H15V23h3.9v.6Zm-3.4.1h0l-.1.1h0v.6l.2.1v1.6a2.87,2.87,0,0,0-1.2.2.36.36,0,0,0-.2.3h0v.1a.44.44,0,0,1-.3-.1h0V22.8h0a9.44,9.44,0,0,0,1.4.1v.7h.2Zm-1.8,3c.2.1.9.3,3.6.3a17.26,17.26,0,0,0,3.2-.2c.2,0,.3-.1.4-.1V28h0a3.13,3.13,0,0,1-.7.2,15.65,15.65,0,0,1-2.9.2,15.07,15.07,0,0,1-3.1-.2.76.76,0,0,0-.4-.1h0V26.7Zm7.2-.1c-.1,0-.1.1,0,0-.2.1-.3.1-.5.2v-.2h0a.36.36,0,0,0-.2-.3,2.53,2.53,0,0,0-1.2-.2V24.5l.2-.1h0v-.6h-.2v-.1h.3V23a3.42,3.42,0,0,0,1.1-.1,1,1,0,0,0,.4-.1h0v3.8Zm0-3.8a1.73,1.73,0,0,1-.7.1c-.5,0-1.4.1-2.9.1-1.7,0-2.6-.1-3.1-.1a1,1,0,0,1-.4-.1h0v-.5h0a12.85,12.85,0,0,0,3.5.2c1.7,0,2.6-.1,3.1-.1a1,1,0,0,0,.4-.1h0v.5Zm-5.6-6a6.74,6.74,0,0,0,2,.1,7.19,7.19,0,0,0,1.8-.1c.1,0,.2,0,.2-.1v3.4h0a.58.58,0,0,1-.4.1c-.3,0-.8.1-1.6.1a7.19,7.19,0,0,1-1.8-.1.35.35,0,0,1-.2-.1h0Zm.3-.2c.3,0,.8-.1,1.7-.1h.1c1,0,1.5.1,1.8.1a.35.35,0,0,1,.2.1h0a.77.77,0,0,0-.3.1c-.3,0-.8.1-1.7.1a7.19,7.19,0,0,1-1.8-.1c-.1,0-.2,0-.2-.1S15.2,16.6,15.4,16.6ZM15,20.2h0c.2.2.6.3,2.1.3a7.19,7.19,0,0,0,1.8-.1c.1,0,.2-.1.3-.1a.1.1,0,0,0,.1-.1h.1a4.48,4.48,0,0,1,1.1.1h0a3.78,3.78,0,0,1-.8.1c-.5,0-1.3.1-2.5.1a18,18,0,0,1-2.8-.1,1,1,0,0,1-.4-.1h-.1a3.75,3.75,0,0,1,1.1-.1Zm-1.5.5a.62.62,0,0,1,.2-.4h0c.1.1.2.1.7.2s1.3.1,2.6.1a18,18,0,0,0,2.8-.1,1,1,0,0,0,.4-.1h.1l.2.2v.1h0v.4a18.52,18.52,0,0,1-3.6.2c-1.7,0-2.6-.1-3-.1a4.33,4.33,0,0,1-.5-.1h-.1l.2-.4Zm6.6,30.2a8.34,8.34,0,0,1-3,.4c-1.8,0-2.7-.2-3.1-.5a1.38,1.38,0,0,1-.4-.3v-.1h0V28.1c.2.1.9.4,3.6.4a17.26,17.26,0,0,0,3.2-.2c.2-.1.3-.1.4-.2V50.4h0C20.6,50.5,20.6,50.7,20.1,50.9Z"/><path class="c" d="M38.5,19.6v-.1a.35.35,0,0,0-.2-.1H34.7V5.8h0s0-.2-.6-.4a9.59,9.59,0,0,0-1.5-.3v-4h0s0-.1-.3-.2A5.73,5.73,0,0,0,30.5.7h-.3a5.25,5.25,0,0,0-1.8.2c-.3.1-.3.2-.3.2h0V5.2a6.3,6.3,0,0,0-1.3.3c-.5.2-.6.4-.6.4h0V50.3h0c0,.1,0,.2.2.2h0l3.5,1h.5a10.07,10.07,0,0,0,2.6-.3h0c1.9-.6,4.6-1.8,4.6-1.8h0a2.11,2.11,0,0,0,.8-.6h0l.1-29.2Zm-6.3-.2H26.3V16a8.33,8.33,0,0,0,1.2-.1c.8,0,1.8-.1,3-.1a25.38,25.38,0,0,1,3,.1,8.37,8.37,0,0,1,1.2.1v1.2c0-.1-.1-.3-.2-.3a20.15,20.15,0,0,0-2.3-.1h0a.46.46,0,0,0-.4.5h0c0,.3.3.4.4.5h2.3c.1,0,.1-.1.2-.1v1.9A10.14,10.14,0,0,0,32.2,19.4Zm2.5-3.5h-.5V14.7h0V7.3c.1,0,.1,0,.2-.1a.35.35,0,0,0,.2-.1v8.8ZM30.5,6.5a9.52,9.52,0,0,1,3.1.3c.5.2.5.3.5.4h0V8.4c-.1,0-.1-.1-.2-.1a9.43,9.43,0,0,0-3.4-.4,18.36,18.36,0,0,0-2.6.2c-.3.1-.6.1-.8.2a.35.35,0,0,0-.2.1V7.2h0s0-.2.5-.4A13.85,13.85,0,0,1,30.5,6.5Zm0,3.2H29.4V8.9h0a1.14,1.14,0,0,1,1-.4c.8,0,1,.3,1,.4h0v.8Zm1.1-.9c-.1-.2-.4-.4-1.1-.4a1.42,1.42,0,0,0-1.1.4c-.5,0-.9-.1-1.2-.1a.44.44,0,0,1-.3-.1h-.1a1.69,1.69,0,0,1,.9-.2,9.72,9.72,0,0,1,1.8-.1,11.52,11.52,0,0,1,2,.1,3.54,3.54,0,0,1,.6.1c.1,0,.1,0,.2.1h0c-.1.1-.3.1-.5.2A4.82,4.82,0,0,0,31.6,8.8Zm0,.1c.5,0,.9-.1,1.2-.1s.3-.1.4-.1.1-.1.2-.2-.1-.1-.3-.2a13.38,13.38,0,0,0-2.6-.2,11.52,11.52,0,0,0-2,.1,3.54,3.54,0,0,0-.6.1c-.1,0-.2.1-.3.2s.1.1.2.2a5.14,5.14,0,0,0,1.6.2h0V9a7.18,7.18,0,0,1-1.7-.2.76.76,0,0,1-.5-.2.31.31,0,0,0-.2-.1h0a1.24,1.24,0,0,1,.3-.2A10.75,10.75,0,0,1,30.5,8a18.36,18.36,0,0,1,2.6.2c.3.1.6.1.8.2s.3.1.3.2,0,.1-.2.1a10.05,10.05,0,0,1-2.4.3V8.9ZM27,8.8a8,8,0,0,0,2.3.4v.7c-.4,0-.6.1-.8.1s-.4.2-.4.3h0v4.3h0c-.3,0-.6,0-.7.1a4.33,4.33,0,0,0-.5.1h0V8.7A.1.1,0,0,1,27,8.8Zm1.2,1.3h0a5.21,5.21,0,0,1,2.3-.3c1,0,1.6.1,1.9.1s.2.1.3.1v.1h0v4.2H28.2V10.1Zm4.6.1h0c0-.1-.1-.2-.4-.3s-.4-.1-.8-.1V9.1a8.16,8.16,0,0,0,1.8-.2,1.42,1.42,0,0,0,.6-.2.1.1,0,0,0,.1-.1v5.9h0a4.6,4.6,0,0,0-1.3-.2V10.2Zm-5.9,4.5a1.73,1.73,0,0,1,.7-.1,19.53,19.53,0,0,1,2.9-.1c1.7,0,2.6.1,3.1.1a1,1,0,0,1,.4.1h.1v1.2c-.7,0-2-.1-3.6-.1s-2.9.1-3.6.1Zm7.5-7.6h-.2c0-.1-.1-.3-.6-.4a9.86,9.86,0,0,0-3.2-.3,10.3,10.3,0,0,0-3.2.3,1,1,0,0,0-.6.4h-.2c-.1,0-.3-.1-.2-.2s.1-.2.6-.4a18.1,18.1,0,0,1,3.5-.3,11.86,11.86,0,0,1,3.5.3c.6.2.7.3.6.4C34.7,7,34.6,7.1,34.4,7.1Zm-7.8.1c.1,0,.2,0,.2.1V8.6h0v6.1h0v1.2h-.5V7.1C26.4,7.1,26.5,7.2,26.6,7.2Zm5.6,9.6h1c.5,0,1.1.1,1.2.1s.2.2.2.3v.2l-.1.1H32.2a.31.31,0,0,1-.2-.1.37.37,0,0,1-.1-.3h0Q31.9,17,32.2,16.8ZM28.3,1.1s0-.1.3-.2A5.73,5.73,0,0,1,30.4.7h.3a5.73,5.73,0,0,1,1.8.2.35.35,0,0,1,.2.1h0V5c-.6,0-1.2-.1-2.1-.1a14.84,14.84,0,0,0-2.3.1Zm-2,4.7h0s0-.2.6-.3a3.73,3.73,0,0,1,1.2-.2h0a14.84,14.84,0,0,1,2.3-.1,12.17,12.17,0,0,1,2.1.1h0a9.59,9.59,0,0,1,1.5.3,1.09,1.09,0,0,1,.4.2v.1h0v.9a1.63,1.63,0,0,0-.6-.3,12.34,12.34,0,0,0-3.5-.3,11.86,11.86,0,0,0-3.5.3,1,1,0,0,0-.6.3v-1ZM30,51.3l-3.5-1h0l-.2-.1h0V19.5H33V51h0a17.53,17.53,0,0,1-2.5.3Zm3.2-.3V19.5h5.2c.1,0,.1,0,.1.1h0v.3h-.7V49.2l-1.6.7C35.2,50.3,34.1,50.7,33.2,51Zm4.7-1.9c-.1,0-.1.1-.2.1V20h.7V48.6A1.21,1.21,0,0,1,37.9,49.1Z"/><path class="c" d="M30.6,23.8h0a2.54,2.54,0,0,0-1.9-2.2h0a3.75,3.75,0,0,0-1-.1,1.05,1.05,0,0,0-1,.4,1.22,1.22,0,0,0-.3.9V50h0l3.5,1h0a1.38,1.38,0,0,0,.7-.7h0V23.8Zm-.4,27a.31.31,0,0,1-.2.1l-3.5-1V22.6c0-.7.2-1.1,1.2-1.1a3.75,3.75,0,0,1,1,.1,2.72,2.72,0,0,1,1.6,1.3,2.07,2.07,0,0,1,.2.6V50.3A2.19,2.19,0,0,1,30.2,50.8Z"/><path class="c" d="M28.4,41.2c-.4,0-.6.3-.6.8s.3.8.6.8.6-.3.6-.8S28.8,41.2,28.4,41.2Zm0,1.5c-.3,0-.5-.3-.5-.7s.2-.7.5-.7.5.3.5.7S28.7,42.7,28.4,42.7Z"/><path class="c" d="M28.4,44c-.4,0-.6.3-.6.8s.3.8.6.8.6-.3.6-.8S28.8,44,28.4,44Zm0,1.4c-.3,0-.5-.3-.5-.7s.2-.7.5-.7.5.3.5.7S28.7,45.4,28.4,45.4Z"/><path class="c" d="M27.6,39h0a15.47,15.47,0,0,1,1.7.3h0a.35.35,0,0,0,.2-.1V30.9h0q-.15-.3-.3-.3h0l-1.6-.1h0a.35.35,0,0,0-.2.1v.1h0v8A.37.37,0,0,0,27.6,39Zm.5-.5h0l-.1-.1V31.1h0l.1-.1h.1c.3,0,1,.1,1.2.1v7.6Zm-.6-7.8h1.7s.1,0,.2.2h0c-.2,0-.9-.1-1.2-.1h-.1c-.1,0-.1.2-.1.2h0v7.3c0,.1.2.2.2.2h0l1.3.1V39l-.1.1h0a8.58,8.58,0,0,1-1.7-.3h-.1l-.1-.1h0v-8Z"/><path class="c" d="M28.4,27.6c.6,0,1-.6,1-1.3S29,25,28.4,25s-1,.6-1,1.3S27.8,27.6,28.4,27.6Zm0-2.5c.5,0,.9.5.9,1.2s-.4,1.2-.9,1.2-.9-.5-.9-1.2S27.9,25.1,28.4,25.1Z"/><path class="c" d="M28.1,30.9Z"/><path class="c" d="M29.4,48h0l-1.8-.5h0c-.1,0-.1.1-.2.1v.1h0a3.09,3.09,0,0,0,.2.8h0c0,.1.2.2.2.2h0s.4.1.7.2.7.2.8.2h0a.1.1,0,0,0,.1-.1v-.1h0s.1-.6.1-.8S29.4,48,29.4,48Zm.1.2c0,.1-.1.4-.1.6l-1.3-.3H28l-.1-.1h0c0-.1-.1-.5-.1-.7l1.6.4h0A.1.1,0,0,1,29.5,48.2Zm-.2.9-.8-.2c-.4-.1-.7-.2-.7-.2l-.1-.1-.1-.1h0a1,1,0,0,1-.1-.4c0-.2-.1-.3-.1-.4v-.1l.1-.1h.1c0,.1.1.6.1.7h0c0,.1.1.1.2.2H28l1.3.3v.4Z"/><path class="c" d="M29,14.3a.81.81,0,0,0,.7-.9.72.72,0,1,0-1.4,0C28.4,13.8,28.6,14.3,29,14.3Zm-.4-1.5a.52.52,0,0,1,.4-.2.76.76,0,0,1,.4.2.85.85,0,0,1,.2.6,1.42,1.42,0,0,1-.2.6.52.52,0,0,1-.4.2.76.76,0,0,1-.4-.2.85.85,0,0,1-.2-.6C28.5,13.1,28.5,12.9,28.6,12.8Z"/></svg>