<svg xmlns="http://www.w3.org/2000/svg" viewBox="0 0 77 52"><defs><style>.a{fill:#fff;}.b,.c{fill:none;stroke:#fff;stroke-linecap:round;stroke-linejoin:round;}.b{stroke-width:0.75px;}.c{stroke-width:0.5px;}</style></defs><title>classic-gourmand</title><path class="a" d="M21.1,14.8a3.92,3.92,0,0,1,1.8.4,46.64,46.64,0,0,1,4.3,2.9c.4.5,1.7,1.2,3.8,1.2h.9a18.48,18.48,0,0,1,2.3-.1c1.8,0,3.4.4,4.3,2.2a23.65,23.65,0,0,1,1.6,6.4s3.2-2.2,5.8-2.2H46c2.7.1,5.4,1.9,4.7,5.2-.7,3-3,7.2-14.5,7.2-1,0-2.1,0-3.3-.1A22.17,22.17,0,0,0,39.1,35c1.5-.8,4.3-2.3,5.5-2.3h.2s.1-.4-.8-.4a10.33,10.33,0,0,0-3.4.9c-4.2,1.6-10.6,5.2-14.7,6.4a58.59,58.59,0,0,1-13.4,1.7c-3.2,0-6.2-.4-8.1-1.5,0,0-5.6-3.7.5-7.1a9.49,9.49,0,0,1,4.7-1,20.4,20.4,0,0,1,4.8.6s.4-9.4,1.6-13.2c1.2-2.8,3-4.3,5.1-4.3m0-.7h0c-2.4,0-4.4,1.7-5.4,4.6-1,3.2-1.5,10.1-1.6,12.5a20.91,20.91,0,0,0-4.1-.4,10.71,10.71,0,0,0-5.1,1.1C2.8,33.1,1.7,34.4,1.7,36c-.1,2.5,2.6,4.2,2.7,4.3C6,41.4,8.9,42,12.7,42a64.21,64.21,0,0,0,13.6-1.7,37.25,37.25,0,0,0,4.8-1.8l1.9.1c1.2.1,2.3.1,3.3.1,9.1,0,14.1-2.5,15.2-7.8a4.65,4.65,0,0,0-.8-4,6.08,6.08,0,0,0-4.6-2.1H46a11.42,11.42,0,0,0-5.2,1.7A18.21,18.21,0,0,0,39.3,21a5.08,5.08,0,0,0-4.9-2.6,19.42,19.42,0,0,0-2.4.2h-.9a4.69,4.69,0,0,1-3.3-1,31.77,31.77,0,0,0-4.5-3h-.1a4.06,4.06,0,0,0-2.1-.5Z"/><path class="b" d="M37.7,38.2V40l36.9,3.1V24.7l-18.7-8a2.54,2.54,0,0,0,.2-1.2,3,3,0,0,0-2.6-3h0a2.49,2.49,0,0,1,2.6-2.6.4.4,0,0,0,0-.8,3.36,3.36,0,0,0-3.5,3.5h0a3,3,0,0,0-2.6,3,3.59,3.59,0,0,0,.2,1.1L38.9,21.2"/><path class="c" d="M50,15.4a3.59,3.59,0,0,0,.2,1.1"/><path class="c" d="M55.9,16.6a2.54,2.54,0,0,0,.2-1.2"/><path class="c" d="M55.9,16.6a3.17,3.17,0,0,1-2.8,1.9,3,3,0,0,1-2.8-1.9"/><path class="c" d="M51.2,30.1h.2c2.3.2,2.5-2.4,4.8-2.2s2.1,2.8,4.4,3,2.5-2.4,4.8-2.2,2.1,2.8,4.4,3,2.5-2.4,4.8-2.2"/><path class="c" d="M49.1,34.6c.6.7,1.1,1.5,2.3,1.6,2.3.2,2.5-2.4,4.8-2.2s2.1,2.8,4.4,3,2.5-2.4,4.8-2.2,2.1,2.8,4.4,3,2.5-2.4,4.8-2.2"/><line class="c" x1="74.6" y1="24.7" x2="39.1" y2="21.7"/></svg>