<svg xmlns="http://www.w3.org/2000/svg" viewBox="0 0 52 52"><defs><style>.a,.b{fill:none;stroke:#fff;stroke-linejoin:round;}.a{stroke-width:0.75px;}.b{stroke-width:0.5px;}</style></defs><title>clearomiseurs-mobile</title><path class="a" d="M27,44.5H26c-.3,0-6.8.1-8.5-.7-.1,0-.1-.1-.1-.2V39.7a.22.22,0,0,1,.2-.2h1.1v-.3a4.22,4.22,0,0,1-1.2-.3c-.1,0-.1-.1-.1-.2V36a.22.22,0,0,1,.2-.2h.2V20.5l.2-.2h-.3a.22.22,0,0,1-.2-.2V15.8a.37.37,0,0,1,.1-.3q.45-.75,3.6-.9V5.3c.1-.2.3-.6,5-.6s4.9.4,5,.6v9.4q3,.15,3.6.9a.37.37,0,0,1,.1.3v4.3a.22.22,0,0,1-.2.2h-.3c.1.1.1.2.2.2V35.9h.2a.22.22,0,0,1,.2.2v2.7c0,.1,0,.1-.1.2s-.9.2-1.2.3v.3h1.1a.22.22,0,0,1,.2.2v3.9c0,.1,0,.2-.1.2A40.82,40.82,0,0,1,27,44.5ZM21.4,5.3Zm9.2,0Zm-9.2,0Zm9.2,0Z"/><path class="a" d="M28.5,44.4v2.7c-.1.2-.9.3-.9.3H24.5s-.8-.1-.9-.3V44.4"/><path class="b" d="M30.8,14.8c-.7,0-4.8-.1-4.8-.1s-4.1,0-4.8.1"/><line class="b" x1="18.3" y1="20" x2="33.7" y2="20"/><line class="b" x1="18.2" y1="20.3" x2="33.8" y2="20.3"/><path class="b" d="M33.1,38.9c-.8.1-7.1.2-7.1.2s-6.3,0-7.1-.2"/><path class="b" d="M34.4,39.6a71.57,71.57,0,0,1-8.4.3,71.57,71.57,0,0,1-8.4-.3"/><path class="b" d="M18.9,39.6s2.9.2,7.1.2,7.1-.2,7.1-.2"/><line class="b" x1="17.9" y1="35.9" x2="34.1" y2="35.9"/><path class="b" d="M18.5,35.9V34s.1-.6,1-.6c0-.6.8-.5,2.2-.5V32h-.4V23.8l-.3-.4v-.6H19.4l-.5-.2v-.3a.81.81,0,0,1-.5-.7,1.08,1.08,0,0,1,.4-.8v-.2h-.9"/><path class="b" d="M33.5,35.9V34s-.1-.6-1-.6c0-.6-.8-.5-2.2-.5V32h.4V23.8l.2-.2V23h1.6l.5-.2v-.3a.81.81,0,0,0,.5-.7,1.08,1.08,0,0,0-.4-.8v-.2H34"/><path class="b" d="M21.6,32.8s-.3.5,4.4.5,4.3-.5,4.3-.5"/><path class="b" d="M19.4,33.3s-.2.4,6.6.4,6.5-.4,6.5-.4"/><line class="b" x1="18.8" y1="20.6" x2="33.1" y2="20.6"/><line class="b" x1="18.8" y1="20.8" x2="33.1" y2="20.8"/><line class="b" x1="18.9" y1="22.2" x2="33" y2="22.2"/><line class="b" x1="18.9" y1="22.6" x2="33" y2="22.6"/><line class="b" x1="21" y1="22.8" x2="30.9" y2="22.8"/><line class="b" x1="21" y1="23.4" x2="30.9" y2="23.4"/><line class="b" x1="21.2" y1="23.7" x2="30.7" y2="23.7"/><polyline class="b" points="30.3 31.9 28.9 31.9 28.9 33.2"/></svg>