<svg xmlns="http://www.w3.org/2000/svg" viewBox="0 0 52 52"><defs><style>.a,.b{fill:none;stroke:#fff;stroke-miterlimit:10;}.a{stroke-width:0.75px;}.b{stroke-width:0.5px;}</style></defs><title>custards-mobile</title><path class="a" d="M47.8,12a3.62,3.62,0,0,0-3.2-1.3,4.68,4.68,0,0,0-3.4,2.6,5.24,5.24,0,0,0,.6,4.4,2.62,2.62,0,0,0,2.3,1,2.68,2.68,0,0,0,2.2-1.5,2.82,2.82,0,0,0-.1-2.2,1.47,1.47,0,0,0-1-.9h-.1a2.49,2.49,0,0,0-.8.1c-.3.1-.5.4-.5.9a.47.47,0,0,0,.5.5h.1c.2.1.3,0,.4-.1s0-.3-.1-.4a.31.31,0,0,1-.2-.1h0c0-.2.1-.3.2-.3a.75.75,0,0,1,.5-.1,1.7,1.7,0,0,1,.6.6,1.82,1.82,0,0,1,.1,1.6,2,2,0,0,1-1.7,1.1,2,2,0,0,1-1.8-.7c-.6-1.1-1.1-2.7-.6-3.8a3.79,3.79,0,0,1,2.9-2.2,2.92,2.92,0,0,1,2.7,1.1,5.6,5.6,0,0,1,.3,7.1,8.81,8.81,0,0,1-2.9,2s-3.6,1-8.7,2.6c0-.1,0-.1.1-.2.5-2,.8-2.9.8-2.9a18.13,18.13,0,0,1-3-.7,10,10,0,0,0-4.7.3,10.74,10.74,0,0,0-2.1-4.2l-2.1-2.1s-.6.7-2.1,2.1a10.74,10.74,0,0,0-2.1,4.2,9.93,9.93,0,0,0-4.7-.3c-2,.6-2.9.8-2.9.8s.3.9.8,2.9a9,9,0,0,0,2.6,3.9,11.68,11.68,0,0,0-2.3,3.3h-.2A106.56,106.56,0,0,0,2.7,35.6a.25.25,0,0,0-.1.4c.1.1.2.2.3.2H3a89.4,89.4,0,0,1,11.2-4.4c-.2.8-.4,1.4-.5,1.8h-.1a46.65,46.65,0,0,1-5.4,1,.32.32,0,0,0-.3.3.27.27,0,0,0,.3.3h0a32.9,32.9,0,0,0,5.3-1,1.58,1.58,0,0,0-.1.4s.9.2,2.9.8a10,10,0,0,0,4.7-.3,10.74,10.74,0,0,0,2.1,4.2l2.1,2.1s.6-.7,2.1-2.1a10.74,10.74,0,0,0,2.1-4.2,9.93,9.93,0,0,0,4.7.3c2-.6,2.9-.8,2.9-.8s-.3-.9-.8-2.9a9.51,9.51,0,0,0-1.8-3.1l5-1.5a5.66,5.66,0,0,1,2.6.1,4.14,4.14,0,0,1,2.6,4.4,2,2,0,0,1-1.2,1.6,2.69,2.69,0,0,1-2.6-.2,2.89,2.89,0,0,1-1.1-2.4,1.23,1.23,0,0,1,.7-1.1,1.71,1.71,0,0,1,1.4,0,1.23,1.23,0,0,1,.5,1,.75.75,0,0,1-.1.5h-.5a.1.1,0,0,1,.1-.1c.1-.1,0-.3-.1-.4s-.3,0-.4.1a.56.56,0,0,0-.1.6c.4.7,1.1.3,1.4.2l.1-.1a1.49,1.49,0,0,0,.3-1,2.75,2.75,0,0,0-.8-1.5,2.33,2.33,0,0,0-2,0,2.09,2.09,0,0,0-1.1,1.6,4.07,4.07,0,0,0,1.4,3,4.07,4.07,0,0,0,1.8.5,2.78,2.78,0,0,0,2.8-2.4,4.58,4.58,0,0,0-3-5,7,7,0,0,0-2.9-.1L34,27.9c-.1,0-.1,0-.1.1l-.3-.3a11.76,11.76,0,0,0,2.3-3.1h.2C41.3,23,45,22,45,21.9a8,8,0,0,0,3.2-2.2A6.07,6.07,0,0,0,47.8,12Z"/><path class="b" d="M29.1,28.4a4.56,4.56,0,0,0,1.2-1.8,6.25,6.25,0,0,1,.4-1.4s-.4-.1-1.4-.4a5.71,5.71,0,0,0-2.2.1,4.6,4.6,0,0,0-1-2l-1-1-1,1a4.6,4.6,0,0,0-1,2,4.23,4.23,0,0,0-2.2-.1,13.07,13.07,0,0,1-1.4.4s.1.4.4,1.4a4,4,0,0,0,1.2,1.8,4.56,4.56,0,0,0-1.2,1.8,6.25,6.25,0,0,1-.4,1.4s.4.1,1.4.4a5.71,5.71,0,0,0,2.2-.1,4.6,4.6,0,0,0,1,2l1,1,1-1a4.6,4.6,0,0,0,1-2,4.23,4.23,0,0,0,2.2.1,13.07,13.07,0,0,1,1.4-.4s-.1-.4-.4-1.4A4,4,0,0,0,29.1,28.4Z"/></svg>