<svg xmlns="http://www.w3.org/2000/svg" viewBox="0 0 52 52"><defs><style>.a{fill:#fff;}.b,.c{fill:none;stroke:#fff;stroke-linejoin:round;}.b{stroke-width:0.75px;}.c{stroke-width:0.5px;}</style></defs><title>drippers-mobile</title><path class="a" d="M26,9.1c1.9,0,7.1.2,8.2.4s1.1,1,1.1,1v6.7a1.18,1.18,0,0,1,1,.5s1.9,1.8,2.3,2.3a5.35,5.35,0,0,1,.4,2.2V38.3c-1.6,2-13,2-13,2s-11.4,0-13-2V22.2a5.35,5.35,0,0,1,.4-2.2c.4-.5,2.3-2.3,2.3-2.3a1.55,1.55,0,0,1,1-.5V10.5s0-.7,1.1-1A66.07,66.07,0,0,1,26,9.1m0-.8c-1.7,0-7.1.2-8.4.4A2,2,0,0,0,16,10.5v6.1a1.83,1.83,0,0,0-.8.6l-2.4,2.4a5.54,5.54,0,0,0-.6,2.7v16c0,.2.1.3.2.5C14.2,40.9,24,41,26,41s11.8-.1,13.6-2.2a.76.76,0,0,0,.2-.5V22.2a4.61,4.61,0,0,0-.6-2.7c-.4-.5-2.1-2.1-2.4-2.4a3.19,3.19,0,0,0-.8-.6V10.4a1.81,1.81,0,0,0-1.6-1.7c-1.3-.2-6.7-.4-8.4-.4Z"/><path class="b" d="M29.3,40.1v2.3a9.62,9.62,0,0,1-3.3.5,9.62,9.62,0,0,1-3.3-.5V40.1"/><path class="c" d="M38.8,29.4c-2.1,1.8-13,1.8-13,1.8H26s-10.8-.1-13-1.8"/><path class="c" d="M39,36.9C37.7,39,26,39,26,39s-11.7,0-13-2.1"/><path class="c" d="M32.4,29.1a.82.82,0,0,1-.8.9,95.48,95.48,0,0,1-10.7,0,.82.82,0,0,1-.8-.9h0a.82.82,0,0,1,.9-.8,92,92,0,0,0,10.5,0,.82.82,0,0,1,.9.8Z"/><path class="c" d="M35.3,17.2c.5,1.4-9.3,1.2-9.3,1.2s-9.7.2-9.3-1.2"/><path class="c" d="M34.5,9.6c0,.3-3.8.5-8.5.5s-8.5-.2-8.5-.5,3.8-.5,8.5-.5S34.5,9.3,34.5,9.6Z"/></svg>