<?xml version="1.0" encoding="utf-8"?>
<!-- Generator: Adobe Illustrator 22.0.1, SVG Export Plug-In . SVG Version: 6.00 Build 0)  -->
<svg version="1.1" id="Calque_1" xmlns="http://www.w3.org/2000/svg" xmlns:xlink="http://www.w3.org/1999/xlink" x="0px" y="0px"
	 viewBox="0 0 52 52" style="enable-background:new 0 0 52 52;" xml:space="preserve">
<style type="text/css">
	.st0{fill:#FFFFFF;}
	.st1{fill:none;stroke:#FFFFFF;stroke-width:0.5;stroke-miterlimit:10;}
	.st2{fill:none;stroke:#FFFFFF;stroke-width:0.25;stroke-linecap:round;stroke-linejoin:round;stroke-miterlimit:10;}
	.st3{fill:none;stroke:#FFFFFF;stroke-width:0.5;stroke-linecap:round;stroke-linejoin:round;stroke-miterlimit:10;}
	.st4{fill:none;stroke:#FFFFFF;stroke-width:0.75;stroke-linecap:round;stroke-linejoin:round;stroke-miterlimit:10;}
	.st5{display:none;}
	
		.st6{display:inline;fill:none;stroke:#FFFFFF;stroke-width:0.75;stroke-linecap:round;stroke-linejoin:round;stroke-miterlimit:10;}
	.st7{display:inline;}
	.st8{display:inline;fill:none;stroke:#FFFFFF;stroke-width:0.5;stroke-linecap:round;stroke-linejoin:round;stroke-miterlimit:10;}
	.st9{fill:none;stroke:#FFFFFF;stroke-width:0.75;stroke-linejoin:round;stroke-miterlimit:10;}
	.st10{fill:none;stroke:#FFFFFF;stroke-width:0.5;stroke-linejoin:round;stroke-miterlimit:10;}
	.st11{fill:none;stroke:#FFFFFF;stroke-width:0.25;stroke-miterlimit:10;}
	.st12{display:inline;fill:none;stroke:#FFFFFF;stroke-width:0.5;stroke-miterlimit:10;}
	.st13{display:inline;fill:none;stroke:#FFFFFF;stroke-width:0.25;stroke-miterlimit:10;}
	.st14{fill:none;stroke:#FFFFFF;stroke-width:0.75;stroke-linecap:round;stroke-miterlimit:10;}
	.st15{fill:none;stroke:#FFFFFF;stroke-width:0.15;stroke-miterlimit:10;}
	.st16{display:inline;fill:none;stroke:#FFFFFF;stroke-width:0.75;stroke-linecap:round;stroke-miterlimit:10;}
	.st17{display:inline;fill:none;stroke:#FFFFFF;stroke-width:0.15;stroke-miterlimit:10;}
	.st18{fill:none;stroke:#FFFFFF;stroke-width:0.75;stroke-miterlimit:10;}
	.st19{fill:none;stroke:#FFFFFF;stroke-width:0.2023;stroke-linecap:round;stroke-linejoin:round;stroke-miterlimit:10;}
	.st20{fill:none;stroke:#FFFFFF;stroke-width:0.2731;stroke-miterlimit:10;}
	.st21{fill:none;stroke:#FFFFFF;stroke-width:0.34;stroke-miterlimit:10;}
	.st22{fill:none;stroke:#FFFFFF;stroke-width:0.1966;stroke-miterlimit:10;}
	.st23{fill:none;stroke:#FFFFFF;stroke-width:0.1966;stroke-linecap:round;stroke-linejoin:round;stroke-miterlimit:10;}
	.st24{display:inline;fill:none;stroke:#FFFFFF;stroke-width:0.75;stroke-miterlimit:10;}
	.st25{fill:#292929;}
	.st26{fill:none;stroke:#292929;stroke-width:0.85;stroke-miterlimit:10;}
	.st27{fill:none;stroke:#292929;stroke-width:0.425;stroke-linecap:round;stroke-linejoin:round;stroke-miterlimit:10;}
	.st28{fill:none;stroke:#292929;stroke-width:0.85;stroke-linecap:round;stroke-linejoin:round;stroke-miterlimit:10;}
	.st29{fill:none;stroke:#292929;stroke-width:1.275;stroke-linecap:round;stroke-linejoin:round;stroke-miterlimit:10;}
	.st30{fill:none;stroke:#292929;stroke-width:1.275;stroke-linejoin:round;stroke-miterlimit:10;}
	.st31{fill:none;stroke:#292929;stroke-width:0.85;stroke-linejoin:round;stroke-miterlimit:10;}
	.st32{fill:none;stroke:#292929;stroke-width:0.425;stroke-miterlimit:10;}
	.st33{fill:none;stroke:#292929;stroke-width:1.275;stroke-linecap:round;stroke-miterlimit:10;}
	.st34{fill:none;stroke:#292929;stroke-width:0.255;stroke-miterlimit:10;}
	.st35{fill:none;stroke:#292929;stroke-width:1.275;stroke-miterlimit:10;}
	.st36{fill:#292929;stroke:#FFFFFF;stroke-width:4;stroke-linecap:round;stroke-linejoin:round;}
	.st37{fill:#292929;stroke:#FFFFFF;stroke-width:3.75;stroke-linecap:round;stroke-linejoin:round;}
	.st38{fill:none;stroke:#000000;stroke-width:0.75;stroke-miterlimit:10;}
	.st39{fill:#292929;stroke:#292929;stroke-width:0.75;stroke-miterlimit:10;}
	.st40{fill:none;stroke:#292929;stroke-width:0.5;stroke-miterlimit:10;}
	.st41{fill:#292929;stroke:#FFFFFF;stroke-width:0.75;stroke-miterlimit:10;}
	.st42{fill:none;stroke:#FFFFFF;stroke-width:0.5044;stroke-miterlimit:10;}
	.st43{fill:none;stroke:#FFFFFF;stroke-width:0.2522;stroke-linecap:round;stroke-linejoin:round;stroke-miterlimit:10;}
	.st44{fill:none;stroke:#FFFFFF;stroke-width:0.5044;stroke-linecap:round;stroke-linejoin:round;stroke-miterlimit:10;}
	.st45{fill:none;stroke:#292929;stroke-width:0.75;stroke-linecap:round;stroke-linejoin:round;stroke-miterlimit:10;}
	.st46{fill:none;stroke:#292929;stroke-linecap:round;stroke-linejoin:round;stroke-miterlimit:10;}
	.st47{fill-rule:evenodd;clip-rule:evenodd;fill:none;stroke:#292929;stroke-width:0.75;stroke-miterlimit:10;}
	.st48{fill:none;}
	.st49{fill:none;stroke:#FFFFFF;stroke-width:0.4073;stroke-miterlimit:10;}
	.st50{fill:none;stroke:#000000;stroke-width:1.275;stroke-miterlimit:10;}
	.st51{fill:none;stroke:#000000;stroke-width:0.3438;stroke-linecap:round;stroke-linejoin:round;stroke-miterlimit:10;}
	.st52{fill:none;stroke:#000000;stroke-width:0.4642;stroke-miterlimit:10;}
	.st53{fill:none;stroke:#000000;stroke-width:0.578;stroke-miterlimit:10;}
	.st54{fill:none;stroke:#000000;stroke-width:1.275;stroke-linecap:round;stroke-linejoin:round;stroke-miterlimit:10;}
	.st55{fill:none;stroke:#000000;stroke-width:0.6925;stroke-miterlimit:10;}
	.st56{fill:none;stroke:#000000;stroke-width:0.85;stroke-miterlimit:10;}
	.st57{fill:none;stroke:#FFFFFF;stroke-width:0.3055;stroke-miterlimit:10;}
	.st58{fill:none;stroke:#FFFFFF;stroke-width:0.375;stroke-miterlimit:10;}
	.st59{fill:none;stroke:#FFFFFF;stroke-width:0.1448;stroke-linecap:round;stroke-linejoin:round;stroke-miterlimit:10;}
	.st60{fill:none;stroke:#FFFFFF;stroke-width:0.1955;stroke-miterlimit:10;}
	.st61{fill:none;stroke:#FFFFFF;stroke-width:0.2434;stroke-miterlimit:10;}
	.st62{fill:none;stroke:#292929;stroke-width:1.2951;stroke-miterlimit:10;}
	.st63{fill:none;stroke:#292929;stroke-width:0.8634;stroke-miterlimit:10;}
	.st64{fill:none;stroke:#292929;stroke-width:0.8634;stroke-linecap:round;stroke-linejoin:round;stroke-miterlimit:10;}
	.st65{fill:none;stroke:#292929;stroke-width:1.2951;stroke-linecap:round;stroke-linejoin:round;stroke-miterlimit:10;}
	.st66{fill:none;stroke:#292929;stroke-width:0.871;stroke-miterlimit:10;}
	.st67{fill:none;stroke:#292929;stroke-width:0.4355;stroke-linecap:round;stroke-linejoin:round;stroke-miterlimit:10;}
	.st68{fill:none;stroke:#292929;stroke-width:0.871;stroke-linecap:round;stroke-linejoin:round;stroke-miterlimit:10;}
	.st69{fill-rule:evenodd;clip-rule:evenodd;fill:none;stroke:#FFFFFF;stroke-width:0.75;stroke-miterlimit:10;}
	.st70{display:inline;fill-rule:evenodd;clip-rule:evenodd;fill:none;stroke:#FFFFFF;stroke-width:0.75;stroke-miterlimit:10;}
	.st71{display:inline;fill:none;}
	.st72{fill:#292929;stroke:#FFFFFF;stroke-width:3;stroke-linecap:round;stroke-linejoin:round;stroke-miterlimit:10;}
	.st73{fill:#292929;stroke:#FFFFFF;stroke-width:1.8438;stroke-linecap:round;stroke-linejoin:round;stroke-miterlimit:10;}
	.st74{fill:#292929;stroke:#FFFFFF;stroke-width:0.6558;stroke-linecap:round;stroke-linejoin:round;stroke-miterlimit:10;}
	.st75{fill:none;stroke:#FFFFFF;stroke-width:0.6558;stroke-linecap:round;stroke-linejoin:round;stroke-miterlimit:10;}
	
		.st76{display:inline;fill:#292929;stroke:#FFFFFF;stroke-width:0.6558;stroke-linecap:round;stroke-linejoin:round;stroke-miterlimit:10;}
	
		.st77{display:inline;fill:none;stroke:#FFFFFF;stroke-width:0.6558;stroke-linecap:round;stroke-linejoin:round;stroke-miterlimit:10;}
	.st78{fill:none;stroke:#FFFFFF;stroke-width:0.5625;stroke-miterlimit:10;}
	.st79{fill:#292929;stroke:#FFFFFF;stroke-width:0.75;stroke-linecap:round;stroke-linejoin:round;stroke-miterlimit:10;}
	.st80{fill:#292929;stroke:#FFFFFF;stroke-width:1.9539;stroke-linecap:round;stroke-linejoin:round;stroke-miterlimit:10;}
	.st81{fill:#292929;stroke:#FFFFFF;stroke-width:0.5937;stroke-linecap:round;stroke-linejoin:round;stroke-miterlimit:10;}
	.st82{fill:#292929;stroke:#FFFFFF;stroke-width:1.5466;stroke-linecap:round;stroke-linejoin:round;stroke-miterlimit:10;}
	.st83{fill:#FFFFFF;stroke:#292929;stroke-width:1.275;stroke-linecap:round;stroke-linejoin:round;stroke-miterlimit:10;}
	.st84{fill:#606060;}
	.st85{fill:#606060;stroke:#FFFFFF;stroke-miterlimit:10;}
</style>
<g>
	<polygon class="st48" points="37.5,19.7 35.6,18.6 31.7,19.7 35.6,20.8 	"/>
	<polygon class="st48" points="35,25.3 37.8,22.6 37.8,20.4 36,21.5 	"/>
	<polygon class="st48" points="36,18 37.8,19.1 37.8,16.9 35,14.1 	"/>
	<path class="st48" d="M11.6,9.7c0,0,0,2.9,1.5,4.4c1.5,1.5,4.4,1.5,4.4,1.5s0-2.9-1.5-4.4C14.6,9.7,11.6,9.7,11.6,9.7z"/>
	<polygon class="st48" points="41.5,14.1 38.6,16.9 38.6,19.1 40.5,18 	"/>
	<polygon class="st48" points="38.6,20.4 38.6,22.6 41.5,25.3 40.5,21.5 	"/>
	<polygon class="st48" points="40.9,18.6 39,19.7 40.9,20.8 44.7,19.7 	"/>
	<path class="st0" d="M48.6,22l-3.9,1.1l-3-1.7l3.1-0.9c0.3-0.1,0.5-0.4,0.5-0.7s-0.2-0.6-0.5-0.7l-3.1-0.9l3-1.7l3.9,1.1
		c0,0,0.1,0,0.1,0c0.2,0,0.3-0.1,0.4-0.3c0.1-0.2-0.1-0.4-0.3-0.5l-3.2-0.9l3.1-1.8c0.2-0.1,0.2-0.3,0.1-0.5s-0.3-0.2-0.5-0.1
		l-3.1,1.8l0.9-3.2c0.1-0.2-0.1-0.4-0.3-0.5c-0.2-0.1-0.4,0.1-0.5,0.3l-1.1,3.9l-3,1.7l0.8-3.2c0.1-0.3-0.1-0.7-0.4-0.8
		c-0.1-0.1-0.2-0.1-0.4-0.1c-0.2,0-0.4,0.1-0.5,0.2l-2.3,2.3v-3.4l2.9-2.9c0.1-0.1,0.1-0.4,0-0.5s-0.4-0.1-0.5,0l-2.3,2.3V7.8
		c0-0.2-0.2-0.4-0.4-0.4s-0.4,0.2-0.4,0.4v3.6L35.5,9c-0.1-0.1-0.4-0.1-0.5,0s-0.1,0.4,0,0.5l2.9,2.9v3.4l-2.3-2.3
		c-0.1-0.1-0.3-0.2-0.5-0.2c-0.1,0-0.3,0-0.4,0.1c-0.3,0.2-0.4,0.5-0.4,0.8l0.8,3.2l-3-1.7L31,11.8c-0.1-0.2-0.3-0.3-0.5-0.3
		c-0.2,0.1-0.3,0.3-0.3,0.5l0.9,3.2l-3.1-1.8c-0.2-0.1-0.4,0-0.5,0.1c-0.1,0.2,0,0.4,0.1,0.5l3.1,1.8l-3.2,0.9
		c-0.2,0.1-0.3,0.3-0.3,0.5c0,0.2,0.2,0.3,0.4,0.3c0,0,0.1,0,0.1,0l3.9-1.1l3,1.7L31.5,19c-0.3,0.1-0.5,0.4-0.5,0.7
		c0,0.3,0.2,0.6,0.5,0.7l3.1,0.9l-2.7,1.6c0.1,0.2,0.2,0.4,0.4,0.7L35,22l-0.8,3.2c-0.1,0.3,0.1,0.7,0.4,0.8
		c0.1,0.1,0.2,0.1,0.4,0.1c0.2,0,0.4-0.1,0.5-0.2l2.3-2.3V27L35,29.9c-0.1,0.1-0.1,0.4,0,0.5s0.4,0.1,0.5,0l2.3-2.3v3.6
		c0,0.2,0.2,0.4,0.4,0.4s0.4-0.2,0.4-0.4v-3.6l2.3,2.3c0.1,0.1,0.2,0.1,0.3,0.1s0.2,0,0.3-0.1c0.1-0.1,0.1-0.4,0-0.5L38.6,27v-3.4
		l2.3,2.3c0.1,0.1,0.3,0.2,0.5,0.2c0.1,0,0.3,0,0.4-0.1c0.3-0.2,0.4-0.5,0.4-0.8L41.4,22l3,1.7l1.1,3.9c0,0.2,0.2,0.3,0.4,0.3
		c0,0,0.1,0,0.1,0c0.2-0.1,0.3-0.3,0.3-0.5l-0.9-3.2l3.1,1.8c0.1,0,0.1,0,0.2,0c0.1,0,0.3-0.1,0.3-0.2c0.1-0.2,0-0.4-0.1-0.5
		l-3.1-1.8l3.2-0.9c0.2-0.1,0.3-0.3,0.3-0.5C49.1,22.1,48.9,22,48.6,22z M31.7,19.7l3.8-1.1l1.9,1.1l-1.9,1.1L31.7,19.7z M37.8,22.6
		L35,25.3l1-3.9l1.9-1.1V22.6z M37.8,19.1L36,18l-1-3.9l2.9,2.8V19.1z M38.6,16.9l2.9-2.8l-1,3.9l-1.9,1.1V16.9z M41.5,25.3
		l-2.9-2.8v-2.2l1.9,1.1L41.5,25.3z M40.9,20.8L39,19.7l1.9-1.1l3.8,1.1L40.9,20.8z"/>
	<path class="st0" d="M31.9,24.5c0.8,1.8,1.2,4,0.9,6.5c-0.9,8.6-7.7,12.8-9.4,12.8S20.8,43,18.3,43s-3.4,0.9-5.1,0.9
		c-1.7,0-8.6-4.3-9.4-12.8C2.9,23.4,8,18.8,12.4,18.8c0.5,0,1.1,0.1,1.6,0.2c2.4,0.7,4,0.7,4.3,0.7c0,0,0,0,0,0s0,0,0,0
		c0.2,0,1.8,0,4.3-0.7c0.5-0.1,1-0.2,1.6-0.2c2.5,0,5.2,1.5,6.9,4.1l0.7,0.2l0.2-0.1c-0.4-0.6-0.8-1.2-1.3-1.8
		c-1.8-2-4.2-3.1-6.5-3.1c-0.6,0-1.2,0.1-1.8,0.2c-1.9,0.5-3.2,0.6-3.8,0.6c-0.6-6.2,3.4-7.7,3.6-7.8c0.2-0.1,0.3-0.3,0.2-0.5
		c-0.1-0.2-0.3-0.3-0.5-0.2c0,0-2.6,1-3.7,4.3c-0.1-1.1-0.5-2.9-1.6-4C14.9,9,11.8,9,11.6,9c-0.4,0-0.8,0.3-0.8,0.8
		c0,0.1,0,3.3,1.7,5c1.7,1.7,4.8,1.7,5,1.7c0.1,0,0.2,0,0.3-0.1c-0.1,0.8-0.1,1.6,0,2.6c-0.6,0-1.9-0.2-3.6-0.6
		C13.6,18.1,13,18,12.4,18c-2.4,0-4.7,1.1-6.5,3.1c-2.3,2.5-3.3,6-2.9,9.9c0.9,8.9,7.9,13.5,10.2,13.5c0.9,0,1.5-0.2,2.2-0.4
		c0.8-0.2,1.6-0.5,2.9-0.5s2.1,0.2,2.9,0.5c0.7,0.2,1.4,0.4,2.2,0.4c2.3,0,9.3-4.6,10.2-13.5c0.3-2.8-0.2-5.3-1.3-7.5l-0.2,0.1
		L31.9,24.5z M13.1,14.2c-1.5-1.5-1.5-4.4-1.5-4.4s2.9,0,4.4,1.5c1.5,1.5,1.5,4.4,1.5,4.4S14.6,15.6,13.1,14.2z"/>
	<path class="st0" d="M31.7,23.1L31,22.9c0.3,0.5,0.6,1,0.9,1.6l0.2-0.8l0.2-0.1c-0.1-0.2-0.2-0.4-0.4-0.7L31.7,23.1z"/>
</g>
</svg>
