<svg xmlns="http://www.w3.org/2000/svg" viewBox="0 0 52 52"><defs><style>.a{fill:#fff;}.b{fill:none;stroke:#fff;stroke-linecap:round;stroke-miterlimit:10;stroke-width:0.75px;}</style></defs><title>fruitees-mobile</title><path class="a" d="M31.9,17.9c4.5,0,9.6,4.6,8.8,12.4-.9,8.7-7.8,13-9.5,13s-2.6-.9-5.2-.9-3.5.9-5.2.9-8.7-4.3-9.5-13c-.8-7.7,4.3-12.4,8.8-12.4a7.77,7.77,0,0,1,1.6.2,16.46,16.46,0,0,0,4.3.7h0a15.94,15.94,0,0,0,4.3-.7,10,10,0,0,1,1.6-.2m0-.7v0a11,11,0,0,0-1.8.2,21.76,21.76,0,0,1-4.1.7h0a15.05,15.05,0,0,1-4.1-.7,5.54,5.54,0,0,0-1.8-.2,9,9,0,0,0-6.6,3.1,12.65,12.65,0,0,0-2.9,10c.9,9,8,13.7,10.3,13.7a7.88,7.88,0,0,0,2.3-.4,10.15,10.15,0,0,1,2.9-.5,7.56,7.56,0,0,1,2.9.5,7.88,7.88,0,0,0,2.3.4c2.3,0,9.4-4.7,10.3-13.7a13,13,0,0,0-2.9-10,9.73,9.73,0,0,0-6.8-3.1Z"/><path class="a" d="M19.3,8.7s3,0,4.5,1.5,1.5,4.5,1.5,4.5-3,0-4.5-1.5-1.5-4.5-1.5-4.5m0-.7h-.8v.8c0,.1,0,3.3,1.7,5s4.9,1.7,5,1.7H26v-.8c0-.1,0-3.3-1.7-5S19.4,8,19.3,8Z"/><path class="b" d="M29.8,9.8s-4.7,1.7-3.9,8.5"/></svg>