<svg xmlns="http://www.w3.org/2000/svg" viewBox="0 0 52 52"><defs><style>.a,.b{fill:none;stroke:#fff;stroke-linecap:round;stroke-linejoin:round;}.a{stroke-width:0.75px;}.b{stroke-width:0.5px;}</style></defs><title>gourmands-mobile</title><path class="a" d="M25.8,16.7a2.54,2.54,0,0,0,.2-1.2,3,3,0,0,0-2.6-3h0A2.49,2.49,0,0,1,26,9.9a.4.4,0,1,0,0-.8,3.36,3.36,0,0,0-3.5,3.5h0a3,3,0,0,0-2.6,3,3.59,3.59,0,0,0,.2,1.1l-12.5,5V40l36.9,3.1V24.7Z"/><path class="b" d="M19.9,15.4a3.59,3.59,0,0,0,.2,1.1"/><path class="b" d="M25.8,16.6a2.54,2.54,0,0,0,.2-1.2"/><path class="b" d="M25.8,16.6A3.17,3.17,0,0,1,23,18.5a3,3,0,0,1-2.8-1.9"/><path class="b" d="M7.7,26c2.3.2,2,3.6,4.3,3.8s2.6-3.2,4.9-3,2,3.6,4.3,3.8,2.6-3.2,4.9-3,2,3.6,4.3,3.8,2.6-3.2,4.9-3,2,3.6,4.3,3.8,2.6-3.2,4.9-3"/><path class="b" d="M7.7,32.1c2.3.2,2,3.6,4.3,3.8s2.6-3.2,4.9-3,2,3.6,4.3,3.8,2.6-3.2,4.9-3,2,3.6,4.3,3.8,2.6-3.2,4.9-3,2,3.6,4.3,3.8,2.6-3.2,4.9-3"/><line class="b" x1="44.5" y1="24.7" x2="7.6" y2="21.6"/></svg>