<svg xmlns="http://www.w3.org/2000/svg" viewBox="0 0 52 52"><defs><style>.a,.b{fill:none;stroke:#fff;stroke-miterlimit:10;}.a{stroke-width:0.75px;}.b{stroke-width:0.5px;}</style></defs><title>materiel-diy-mobile</title><path class="a" d="M10.3.8a.66.66,0,0,1,.7.6.81.81,0,0,1,.7.5s.3,2.1.4,3.4c.5,0,.6.6.6.6s.1,1.2.3,4.6c.6,0,.6.4.6.4V12a16.54,16.54,0,0,1,1.7.8,45.14,45.14,0,0,1,.4,5.4l.2.2v.8a7.38,7.38,0,0,1-1.2.2v.5a1.44,1.44,0,0,1,1.4,1.6c3.1.6,3,4.9,3,4.9v22c-.9,2.5-8.7,2.3-8.7,2.3h.1s-7.8.2-8.7-2.3v-22s-.1-4.3,3-4.9c0-1.7,1.4-1.6,1.4-1.6v-.5A7.38,7.38,0,0,1,5,19.2v-1a45.14,45.14,0,0,1,.4-5.4A16.54,16.54,0,0,1,7.1,12V11s0-.4.6-.4A44.79,44.79,0,0,1,8,5.9s0-.6.5-.6c.2-1.2.5-3.4.5-3.4a.67.67,0,0,1,.7-.5.66.66,0,0,1,.7-.6Z"/><path class="b" d="M6,19.4s.7.1,4.3.1,4.3-.1,4.3-.1"/><path class="b" d="M4.8,18.4s.1.3,5.6.3,5.5-.3,5.5-.3"/><path class="b" d="M5,18.2s.6.3,5.3.3,5.3-.3,5.3-.3"/><path class="b" d="M5.4,12.8a29.55,29.55,0,0,0,5,.4,27.57,27.57,0,0,0,4.9-.4"/><path class="b" d="M7.1,12a11.89,11.89,0,0,0,3.3.2c2.9,0,3.2-.2,3.2-.2"/><path class="b" d="M7.6,10.5s.4.3,2.7.3,2.6-.3,2.6-.3"/><path class="b" d="M9.7,1.4h1.2"/><line class="b" x1="8.5" y1="5.3" x2="12.1" y2="5.3"/><path class="a" d="M28.4,50.7a.62.62,0,0,0,.4-.2c.1-.2.3-4,.3-4.3s.5-1.9.6-2.2V27.7s3.5-.2,3.7-1.4c-.1-3.8-.2-6.1-.2-6.1s-.1-1.2-2.6-1.9c-.1-2.1-.2-4.7-2.3-4.7h0c-2.1,0-2.2,2.5-2.3,4.7-2.6.7-2.6,1.9-2.6,1.9s-.1,2.3-.2,6.1c.2,1.2,3.7,1.4,3.7,1.4V44a18,18,0,0,0,.6,2.2c.1.3.2,4,.3,4.3a1.55,1.55,0,0,0,.6.2Z"/><path class="b" d="M23.4,26.3s.4-1.7,5-1.7,5,1.7,5,1.7"/><line class="b" x1="27.1" y1="27.7" x2="27.1" y2="24.7"/><line class="b" x1="29.8" y1="27.7" x2="29.8" y2="24.7"/><path class="b" d="M26.2,18.2a16.3,16.3,0,0,1,2.3-.2,16.3,16.3,0,0,1,2.3.2"/><path class="b" d="M28,50.5s0-.2.4-.2.4.2.4.2"/><path class="a" d="M43.9,51.2s3.1-.1,3.7-.8l.2-.8s.2-.8-2.4-1.2V44.6s4-.1,4.9-.6v-.6l-.4-.5a.87.87,0,0,0-.8-.4H47.3V11.4s0-.9-2.7-.9c-.1-2.3-.1-3.5-.1-3.5s0-.3-.8-.3-.8.3-.8.3-.1,1.2-.1,3.5c-2.9,0-2.7.9-2.7.9V42.5H38.3a1.08,1.08,0,0,0-.8.4l-.5.4v.6c.9.5,4.9.6,4.9.6v3.8c-2.6.4-2.4,1.2-2.4,1.2l.2.8c.7.7,3.7.8,3.7.8h.5Z"/><line class="b" x1="42.7" y1="10.5" x2="44.7" y2="10.5"/><path class="b" d="M47.4,42.5v.9s-.2.6-3.7.6-3.7-.6-3.7-.6v-.9"/><path class="b" d="M37,43.3s1,.7,6.7.7,6.7-.7,6.7-.7"/><path class="b" d="M39.5,49.5s.4.8,4.2.8,4.2-.8,4.2-.8"/><path class="b" d="M42,44.6h3.4"/><line class="b" x1="44.4" y1="32.2" x2="41.5" y2="32.2"/><line class="b" x1="44.4" y1="29.8" x2="41.5" y2="29.8"/><line class="b" x1="44.4" y1="27.5" x2="41.5" y2="27.5"/><line class="b" x1="44.4" y1="25.1" x2="41.5" y2="25.1"/><line class="b" x1="44.4" y1="22.8" x2="41.5" y2="22.8"/><line class="b" x1="44.4" y1="20.5" x2="41.5" y2="20.5"/><line class="b" x1="44.4" y1="18.1" x2="41.5" y2="18.1"/><line class="b" x1="44.4" y1="15.8" x2="41.5" y2="15.8"/><line class="b" x1="44.4" y1="13.4" x2="41.5" y2="13.4"/><polyline class="b" points="44.4 11.1 41.5 11.1 41.5 34.5 44.4 34.5"/><line class="b" x1="42.9" y1="33.3" x2="41.5" y2="33.3"/><line class="b" x1="42.9" y1="31" x2="41.5" y2="31"/><line class="b" x1="42.9" y1="28.7" x2="41.5" y2="28.7"/><line class="b" x1="42.9" y1="26.3" x2="41.5" y2="26.3"/><line class="b" x1="42.9" y1="24" x2="41.5" y2="24"/><line class="b" x1="42.9" y1="21.7" x2="41.5" y2="21.7"/><line class="b" x1="42.9" y1="19.3" x2="41.5" y2="19.3"/><line class="b" x1="42.9" y1="17" x2="41.5" y2="17"/><line class="b" x1="42.9" y1="14.7" x2="41.5" y2="14.7"/><line class="b" x1="42.9" y1="12.4" x2="41.5" y2="12.4"/></svg>