<svg xmlns="http://www.w3.org/2000/svg" viewBox="0 0 52 52"><defs><style>.a,.b{fill:none;stroke:#fff;stroke-linejoin:round;}.a{stroke-linecap:round;stroke-width:0.5px;}.b{stroke-width:0.75px;}</style></defs><title>menthes-mobile</title><path class="a" d="M42.2,9.8c.6,2.7-.8,8.1-.8,8.1s.2,0,.8.4a19.61,19.61,0,0,1-1.8,4.1,2.07,2.07,0,0,1,1,.5,11.87,11.87,0,0,1-1.9,3.6,1.53,1.53,0,0,1,1,.2c-.5,1.6-3,3.9-3,3.9a2.59,2.59,0,0,1,1,.5,17.83,17.83,0,0,1-4.1,3.8l.8.4c-10.3,9.8-18.7.3-18.7.3s-9.5-8.5.3-18.8l.4.8A24.38,24.38,0,0,1,21,13.5a4.17,4.17,0,0,1,.5,1s2.4-2.5,3.9-3a3,3,0,0,1,.2,1,11.87,11.87,0,0,1,3.6-1.9,2.07,2.07,0,0,1,.5,1,19.61,19.61,0,0,1,4.1-1.8,1.48,1.48,0,0,1,.4.8S39.6,9.1,42.2,9.8Z"/><line class="a" x1="33.5" y1="18.5" x2="16.5" y2="35.5"/><polyline class="a" points="18.3 25 18.3 33.7 27 33.7"/><polyline class="a" points="22.7 22.8 22.7 29.3 29.2 29.3"/><polyline class="a" points="27 20.6 27 25 31.4 25"/><path class="b" d="M34.4,34.8A24.38,24.38,0,0,0,38.5,31a4.17,4.17,0,0,0-1-.5s2.5-2.4,3-3.9a3,3,0,0,0-1-.2,11.87,11.87,0,0,0,1.9-3.6,2.07,2.07,0,0,0-1-.5,19.61,19.61,0,0,0,1.8-4.1,1.48,1.48,0,0,0-.8-.4s1.4-5.4.8-8.1c-2.7-.6-8.1.8-8.1.8s0-.2-.4-.8a19.61,19.61,0,0,0-4.1,1.8,2.07,2.07,0,0,0-.5-1,11.87,11.87,0,0,0-3.6,1.9,1.53,1.53,0,0,0-.2-1c-1.6.5-3.9,3-3.9,3a2.59,2.59,0,0,0-.5-1,17.83,17.83,0,0,0-3.8,4.1l-.4-.8c-9.4,10-.9,18.1-.3,18.7L9.5,42.3l.1.1,6.9-6.9c.6.6,8.7,9.1,18.7-.3Z"/></svg>