<?xml version="1.0" encoding="utf-8"?>
<!-- Generator: Adobe Illustrator 22.0.1, SVG Export Plug-In . SVG Version: 6.00 Build 0)  -->
<svg version="1.1" id="Calque_1" xmlns="http://www.w3.org/2000/svg" xmlns:xlink="http://www.w3.org/1999/xlink" x="0px" y="0px"
	 viewBox="0 0 52 52" style="enable-background:new 0 0 52 52;" xml:space="preserve">
<style type="text/css">
	.st0{fill:#FFFFFF;}
	.st1{fill:none;stroke:#FFFFFF;stroke-width:0.5;stroke-miterlimit:10;}
	.st2{fill:none;stroke:#FFFFFF;stroke-width:0.25;stroke-linecap:round;stroke-linejoin:round;stroke-miterlimit:10;}
	.st3{fill:none;stroke:#FFFFFF;stroke-width:0.5;stroke-linecap:round;stroke-linejoin:round;stroke-miterlimit:10;}
	.st4{fill:none;stroke:#FFFFFF;stroke-width:0.75;stroke-linecap:round;stroke-linejoin:round;stroke-miterlimit:10;}
	.st5{display:none;}
	
		.st6{display:inline;fill:none;stroke:#FFFFFF;stroke-width:0.75;stroke-linecap:round;stroke-linejoin:round;stroke-miterlimit:10;}
	.st7{display:inline;}
	.st8{display:inline;fill:none;stroke:#FFFFFF;stroke-width:0.5;stroke-linecap:round;stroke-linejoin:round;stroke-miterlimit:10;}
	.st9{fill:none;stroke:#FFFFFF;stroke-width:0.75;stroke-linejoin:round;stroke-miterlimit:10;}
	.st10{fill:none;stroke:#FFFFFF;stroke-width:0.5;stroke-linejoin:round;stroke-miterlimit:10;}
	.st11{fill:none;stroke:#FFFFFF;stroke-width:0.25;stroke-miterlimit:10;}
	.st12{display:inline;fill:none;stroke:#FFFFFF;stroke-width:0.5;stroke-miterlimit:10;}
	.st13{display:inline;fill:none;stroke:#FFFFFF;stroke-width:0.25;stroke-miterlimit:10;}
	.st14{fill:none;stroke:#FFFFFF;stroke-width:0.75;stroke-linecap:round;stroke-miterlimit:10;}
	.st15{fill:none;stroke:#FFFFFF;stroke-width:0.15;stroke-miterlimit:10;}
	.st16{display:inline;fill:none;stroke:#FFFFFF;stroke-width:0.75;stroke-linecap:round;stroke-miterlimit:10;}
	.st17{display:inline;fill:none;stroke:#FFFFFF;stroke-width:0.15;stroke-miterlimit:10;}
	.st18{fill:none;stroke:#FFFFFF;stroke-width:0.75;stroke-miterlimit:10;}
	.st19{fill:none;stroke:#FFFFFF;stroke-width:0.2023;stroke-linecap:round;stroke-linejoin:round;stroke-miterlimit:10;}
	.st20{fill:none;stroke:#FFFFFF;stroke-width:0.2731;stroke-miterlimit:10;}
	.st21{fill:none;stroke:#FFFFFF;stroke-width:0.34;stroke-miterlimit:10;}
	.st22{fill:none;stroke:#FFFFFF;stroke-width:0.1966;stroke-miterlimit:10;}
	.st23{fill:none;stroke:#FFFFFF;stroke-width:0.1966;stroke-linecap:round;stroke-linejoin:round;stroke-miterlimit:10;}
	.st24{display:inline;fill:none;stroke:#FFFFFF;stroke-width:0.75;stroke-miterlimit:10;}
	.st25{fill:#292929;}
	.st26{fill:none;stroke:#292929;stroke-width:0.85;stroke-miterlimit:10;}
	.st27{fill:none;stroke:#292929;stroke-width:0.425;stroke-linecap:round;stroke-linejoin:round;stroke-miterlimit:10;}
	.st28{fill:none;stroke:#292929;stroke-width:0.85;stroke-linecap:round;stroke-linejoin:round;stroke-miterlimit:10;}
	.st29{fill:none;stroke:#292929;stroke-width:1.275;stroke-linecap:round;stroke-linejoin:round;stroke-miterlimit:10;}
	.st30{fill:none;stroke:#292929;stroke-width:1.275;stroke-linejoin:round;stroke-miterlimit:10;}
	.st31{fill:none;stroke:#292929;stroke-width:0.85;stroke-linejoin:round;stroke-miterlimit:10;}
	.st32{fill:none;stroke:#292929;stroke-width:0.425;stroke-miterlimit:10;}
	.st33{fill:none;stroke:#292929;stroke-width:1.275;stroke-linecap:round;stroke-miterlimit:10;}
	.st34{fill:none;stroke:#292929;stroke-width:0.255;stroke-miterlimit:10;}
	.st35{fill:none;stroke:#292929;stroke-width:1.275;stroke-miterlimit:10;}
	.st36{fill:#292929;stroke:#FFFFFF;stroke-width:4;stroke-linecap:round;stroke-linejoin:round;}
	.st37{fill:#292929;stroke:#FFFFFF;stroke-width:3.75;stroke-linecap:round;stroke-linejoin:round;}
	.st38{fill:none;stroke:#000000;stroke-width:0.75;stroke-miterlimit:10;}
	.st39{fill:#292929;stroke:#292929;stroke-width:0.75;stroke-miterlimit:10;}
	.st40{fill:none;stroke:#292929;stroke-width:0.5;stroke-miterlimit:10;}
	.st41{fill:#292929;stroke:#FFFFFF;stroke-width:0.75;stroke-miterlimit:10;}
	.st42{fill:none;stroke:#FFFFFF;stroke-width:0.5044;stroke-miterlimit:10;}
	.st43{fill:none;stroke:#FFFFFF;stroke-width:0.2522;stroke-linecap:round;stroke-linejoin:round;stroke-miterlimit:10;}
	.st44{fill:none;stroke:#FFFFFF;stroke-width:0.5044;stroke-linecap:round;stroke-linejoin:round;stroke-miterlimit:10;}
	.st45{fill:none;stroke:#292929;stroke-width:0.75;stroke-linecap:round;stroke-linejoin:round;stroke-miterlimit:10;}
	.st46{fill:none;stroke:#292929;stroke-linecap:round;stroke-linejoin:round;stroke-miterlimit:10;}
	.st47{fill-rule:evenodd;clip-rule:evenodd;fill:none;stroke:#292929;stroke-width:0.75;stroke-miterlimit:10;}
	.st48{fill:none;}
	.st49{fill:none;stroke:#FFFFFF;stroke-width:0.4073;stroke-miterlimit:10;}
	.st50{fill:none;stroke:#000000;stroke-width:1.275;stroke-miterlimit:10;}
	.st51{fill:none;stroke:#000000;stroke-width:0.3438;stroke-linecap:round;stroke-linejoin:round;stroke-miterlimit:10;}
	.st52{fill:none;stroke:#000000;stroke-width:0.4642;stroke-miterlimit:10;}
	.st53{fill:none;stroke:#000000;stroke-width:0.578;stroke-miterlimit:10;}
	.st54{fill:none;stroke:#000000;stroke-width:1.275;stroke-linecap:round;stroke-linejoin:round;stroke-miterlimit:10;}
	.st55{fill:none;stroke:#000000;stroke-width:0.6925;stroke-miterlimit:10;}
	.st56{fill:none;stroke:#000000;stroke-width:0.85;stroke-miterlimit:10;}
	.st57{fill:none;stroke:#FFFFFF;stroke-width:0.3055;stroke-miterlimit:10;}
	.st58{fill:none;stroke:#FFFFFF;stroke-width:0.375;stroke-miterlimit:10;}
	.st59{fill:none;stroke:#FFFFFF;stroke-width:0.1448;stroke-linecap:round;stroke-linejoin:round;stroke-miterlimit:10;}
	.st60{fill:none;stroke:#FFFFFF;stroke-width:0.1955;stroke-miterlimit:10;}
	.st61{fill:none;stroke:#FFFFFF;stroke-width:0.2434;stroke-miterlimit:10;}
	.st62{fill:none;stroke:#292929;stroke-width:1.2951;stroke-miterlimit:10;}
	.st63{fill:none;stroke:#292929;stroke-width:0.8634;stroke-miterlimit:10;}
	.st64{fill:none;stroke:#292929;stroke-width:0.8634;stroke-linecap:round;stroke-linejoin:round;stroke-miterlimit:10;}
	.st65{fill:none;stroke:#292929;stroke-width:1.2951;stroke-linecap:round;stroke-linejoin:round;stroke-miterlimit:10;}
	.st66{fill:none;stroke:#292929;stroke-width:0.871;stroke-miterlimit:10;}
	.st67{fill:none;stroke:#292929;stroke-width:0.4355;stroke-linecap:round;stroke-linejoin:round;stroke-miterlimit:10;}
	.st68{fill:none;stroke:#292929;stroke-width:0.871;stroke-linecap:round;stroke-linejoin:round;stroke-miterlimit:10;}
	.st69{fill-rule:evenodd;clip-rule:evenodd;fill:none;stroke:#FFFFFF;stroke-width:0.75;stroke-miterlimit:10;}
	.st70{display:inline;fill-rule:evenodd;clip-rule:evenodd;fill:none;stroke:#FFFFFF;stroke-width:0.75;stroke-miterlimit:10;}
	.st71{display:inline;fill:none;}
	.st72{fill:#292929;stroke:#FFFFFF;stroke-width:3;stroke-linecap:round;stroke-linejoin:round;stroke-miterlimit:10;}
	.st73{fill:#292929;stroke:#FFFFFF;stroke-width:1.8438;stroke-linecap:round;stroke-linejoin:round;stroke-miterlimit:10;}
	.st74{fill:#292929;stroke:#FFFFFF;stroke-width:0.6558;stroke-linecap:round;stroke-linejoin:round;stroke-miterlimit:10;}
	.st75{fill:none;stroke:#FFFFFF;stroke-width:0.6558;stroke-linecap:round;stroke-linejoin:round;stroke-miterlimit:10;}
	
		.st76{display:inline;fill:#292929;stroke:#FFFFFF;stroke-width:0.6558;stroke-linecap:round;stroke-linejoin:round;stroke-miterlimit:10;}
	
		.st77{display:inline;fill:none;stroke:#FFFFFF;stroke-width:0.6558;stroke-linecap:round;stroke-linejoin:round;stroke-miterlimit:10;}
	.st78{fill:none;stroke:#FFFFFF;stroke-width:0.5625;stroke-miterlimit:10;}
	.st79{fill:#292929;stroke:#FFFFFF;stroke-width:0.75;stroke-linecap:round;stroke-linejoin:round;stroke-miterlimit:10;}
	.st80{fill:#292929;stroke:#FFFFFF;stroke-width:1.9539;stroke-linecap:round;stroke-linejoin:round;stroke-miterlimit:10;}
	.st81{fill:#292929;stroke:#FFFFFF;stroke-width:0.5937;stroke-linecap:round;stroke-linejoin:round;stroke-miterlimit:10;}
	.st82{fill:#292929;stroke:#FFFFFF;stroke-width:1.5466;stroke-linecap:round;stroke-linejoin:round;stroke-miterlimit:10;}
</style>
<g>
	<g>
		<g>
			<path class="st41" d="M22.6,49.5c-1.4,0-1.4-1-1.4-1v-32c0,0,0-0.4,0.3-0.4c-0.3-0.1-0.3-0.3-0.3-0.3V8.9c0,0,0-0.4,0.3-0.7
				c0.4-0.3,3.4-2.6,4.4-5.5c0,0,0.1-0.2,0.1-0.2c0.1,0,0.8,0,0.8,0h0h0h0c0,0,0.7,0,0.8,0c0.1,0,0.1,0.2,0.1,0.2
				c0.9,2.9,4,5.2,4.4,5.5c0.3,0.2,0.3,0.7,0.3,0.7v6.8c0,0,0,0.3-0.3,0.3c0.3,0,0.3,0.4,0.3,0.4v32c0,0,0,1-1.4,1H22.6L22.6,49.5z"
				/>
			<line class="st1" x1="21.3" y1="16.1" x2="32.1" y2="16.1"/>
			<line class="st1" x1="21.1" y1="13.9" x2="32.3" y2="13.9"/>
		</g>
		<g>
			<path class="st41" d="M15.2,49.5c-1.4,0-1.4-1-1.4-1v-32c0,0,0-0.4,0.3-0.4c-0.3-0.1-0.3-0.3-0.3-0.3V8.9c0,0,0-0.4,0.3-0.7
				c0.4-0.3,3.4-2.6,4.4-5.5c0,0,0.1-0.2,0.1-0.2c0.1,0,0.8,0,0.8,0h0h0h0c0,0,0.7,0,0.8,0c0.1,0,0.1,0.2,0.1,0.2
				c0.9,2.9,4,5.2,4.4,5.5c0.3,0.2,0.3,0.7,0.3,0.7v6.8c0,0,0,0.3-0.3,0.3c0.3,0,0.3,0.4,0.3,0.4v32c0,0,0,1-1.4,1H15.2L15.2,49.5z"
				/>
			<line class="st1" x1="13.9" y1="16.1" x2="24.7" y2="16.1"/>
			<line class="st1" x1="13.7" y1="13.9" x2="24.9" y2="13.9"/>
		</g>
		<g>
			<path class="st41" d="M7.8,49.5c-1.4,0-1.4-1-1.4-1v-32c0,0,0-0.4,0.3-0.4c-0.3-0.1-0.3-0.3-0.3-0.3V8.9c0,0,0-0.4,0.3-0.7
				C7,7.9,10.1,5.6,11,2.7c0,0,0.1-0.2,0.1-0.2s0.8,0,0.8,0h0h0h0c0,0,0.7,0,0.8,0s0.1,0.2,0.1,0.2c0.9,2.9,4,5.2,4.4,5.5
				c0.3,0.2,0.3,0.7,0.3,0.7v6.8c0,0,0,0.3-0.3,0.3c0.3,0,0.3,0.4,0.3,0.4v32c0,0,0,1-1.4,1H7.8L7.8,49.5z"/>
			<line class="st1" x1="6.5" y1="16.1" x2="17.3" y2="16.1"/>
			<line class="st1" x1="6.4" y1="13.9" x2="17.5" y2="13.9"/>
		</g>
	</g>
	<g>
		<g>
			<path class="st41" d="M40.9,49.5c0,0,3.2,0,4.1-0.3c0.7-0.2,0.7-1.3,0.7-1.3V35.2c0,0-0.2-0.8-0.6-0.8c0-0.3-0.1-0.5-0.1-0.5h0.6
				v-0.2h-0.6v-0.5h0.6v-1h-0.1v-8.1c0,0,0.1-0.3-0.1-0.3c-0.2,0-1.3-0.5-1.3-1.3c0-0.8,0-0.7,0-0.7s0-0.2-0.2-0.2
				c-0.1,0-2.6,0-2.6,0h0c0,0-2.4,0-2.6,0c-0.1,0-0.2,0.2-0.2,0.2s0-0.1,0,0.7c0,0.8-1.2,1.3-1.3,1.3c-0.2,0-0.1,0.3-0.1,0.3v8.1
				h-0.1v1h0.6v0.5h-0.6v0.2h0.6c0,0-0.1,0.2-0.1,0.5c-0.4,0-0.6,0.8-0.6,0.8v12.7c0,0,0,1.1,0.7,1.3c0.9,0.3,4.1,0.3,4.1,0.3H40.9z
				"/>
			<g>
				<line class="st1" x1="37" y1="23.8" x2="45.2" y2="23.8"/>
				<line class="st1" x1="36.9" y1="32.2" x2="45.3" y2="32.2"/>
				<line class="st1" x1="37.4" y1="33.2" x2="44.9" y2="33.2"/>
				<line class="st1" x1="37.2" y1="34.4" x2="45" y2="34.4"/>
				<path class="st1" d="M36.6,47.5c0,0,0.2,0.5,4.7,0.5c4.5,0,4.4-0.4,4.4-0.4"/>
				<path class="st1" d="M36.6,35.5c0,0,1.1,0.1,4.5,0.1c3.4,0,4.5-0.1,4.5-0.1"/>
			</g>
		</g>
		<g>
			<path class="st41" d="M35.2,49.5c0,0,3.2,0,4.1-0.3C40,49,40,47.9,40,47.9V35.2c0,0-0.2-0.8-0.6-0.8c0-0.3-0.1-0.5-0.1-0.5h0.6
				v-0.2h-0.6v-0.5h0.6v-1h-0.1v-8.1c0,0,0.1-0.3-0.1-0.3c-0.2,0-1.3-0.5-1.3-1.3c0-0.8,0-0.7,0-0.7s0-0.2-0.2-0.2
				c-0.1,0-2.6,0-2.6,0h0c0,0-2.4,0-2.6,0c-0.1,0-0.2,0.2-0.2,0.2s0-0.1,0,0.7c0,0.8-1.2,1.3-1.3,1.3c-0.2,0-0.1,0.3-0.1,0.3v8.1
				h-0.1v1h0.6v0.5h-0.6v0.2h0.6c0,0-0.1,0.2-0.1,0.5c-0.4,0-0.6,0.8-0.6,0.8v12.7c0,0,0,1.1,0.7,1.3c0.9,0.3,4.1,0.3,4.1,0.3H35.2z
				"/>
			<g>
				<line class="st1" x1="31.4" y1="23.8" x2="39.5" y2="23.8"/>
				<line class="st1" x1="31.2" y1="32.2" x2="39.6" y2="32.2"/>
				<line class="st1" x1="31.7" y1="33.2" x2="39.2" y2="33.2"/>
				<line class="st1" x1="31.5" y1="34.4" x2="39.4" y2="34.4"/>
				<path class="st1" d="M30.9,47.5c0,0,0.2,0.5,4.7,0.5c4.5,0,4.4-0.4,4.4-0.4"/>
				<path class="st1" d="M30.9,35.5c0,0,1.1,0.1,4.5,0.1c3.4,0,4.5-0.1,4.5-0.1"/>
			</g>
		</g>
		<g>
			<path class="st41" d="M29.5,49.5c0,0,3.2,0,4.1-0.3c0.7-0.2,0.7-1.3,0.7-1.3V35.2c0,0-0.2-0.8-0.6-0.8c0-0.3-0.1-0.5-0.1-0.5h0.6
				v-0.2h-0.6v-0.5h0.6v-1H34v-8.1c0,0,0.1-0.3-0.1-0.3c-0.2,0-1.3-0.5-1.3-1.3c0-0.8,0-0.7,0-0.7s0-0.2-0.2-0.2c-0.1,0-2.6,0-2.6,0
				h0c0,0-2.4,0-2.6,0c-0.1,0-0.2,0.2-0.2,0.2s0-0.1,0,0.7c0,0.8-1.2,1.3-1.3,1.3c-0.2,0-0.1,0.3-0.1,0.3v8.1h-0.1v1H26v0.5h-0.6
				v0.2h0.6c0,0-0.1,0.2-0.1,0.5c-0.4,0-0.6,0.8-0.6,0.8v12.7c0,0,0,1.1,0.7,1.3c0.9,0.3,4.1,0.3,4.1,0.3H29.5z"/>
			<g>
				<line class="st1" x1="25.7" y1="23.8" x2="33.8" y2="23.8"/>
				<line class="st1" x1="25.6" y1="32.2" x2="34" y2="32.2"/>
				<line class="st1" x1="26" y1="33.2" x2="33.5" y2="33.2"/>
				<line class="st1" x1="25.8" y1="34.4" x2="33.7" y2="34.4"/>
				<path class="st1" d="M25.2,47.5c0,0,0.2,0.5,4.7,0.5c4.5,0,4.4-0.4,4.4-0.4"/>
				<path class="st1" d="M25.2,35.5c0,0,1.1,0.1,4.5,0.1c3.4,0,4.5-0.1,4.5-0.1"/>
			</g>
		</g>
		<g>
			<path class="st41" d="M23.9,49.5c0,0,3.2,0,4.1-0.3c0.7-0.2,0.7-1.3,0.7-1.3V35.2c0,0-0.2-0.8-0.6-0.8c0-0.3-0.1-0.5-0.1-0.5h0.6
				v-0.2h-0.6v-0.5h0.6v-1h-0.1v-8.1c0,0,0.1-0.3-0.1-0.3c-0.2,0-1.3-0.5-1.3-1.3c0-0.8,0-0.7,0-0.7s0-0.2-0.2-0.2
				c-0.1,0-2.6,0-2.6,0h0c0,0-2.4,0-2.6,0c-0.1,0-0.2,0.2-0.2,0.2s0-0.1,0,0.7c0,0.8-1.2,1.3-1.3,1.3c-0.2,0-0.1,0.3-0.1,0.3v8.1
				h-0.1v1h0.6v0.5h-0.6v0.2h0.6c0,0-0.1,0.2-0.1,0.5c-0.4,0-0.6,0.8-0.6,0.8v12.7c0,0,0,1.1,0.7,1.3c0.9,0.3,4.1,0.3,4.1,0.3H23.9z
				"/>
			<g>
				<line class="st1" x1="20" y1="23.8" x2="28.2" y2="23.8"/>
				<line class="st1" x1="19.9" y1="32.2" x2="28.3" y2="32.2"/>
				<line class="st1" x1="20.3" y1="33.2" x2="27.8" y2="33.2"/>
				<line class="st1" x1="20.2" y1="34.4" x2="28" y2="34.4"/>
				<path class="st1" d="M19.6,47.5c0,0,0.2,0.5,4.7,0.5c4.5,0,4.4-0.4,4.4-0.4"/>
				<path class="st1" d="M19.6,35.5c0,0,1.1,0.1,4.5,0.1c3.4,0,4.5-0.1,4.5-0.1"/>
			</g>
		</g>
	</g>
</g>
</svg>
