<svg xmlns="http://www.w3.org/2000/svg" viewBox="0 0 52 52"><defs><style>.a,.b,.c{fill:none;stroke:#fff;stroke-miterlimit:10;}.a{stroke-width:0.75px;}.b{stroke-width:0.31px;}.c{stroke-width:0.38px;}.d{fill:#fff;}</style></defs><title>pack-diy-mobile</title><path class="a" d="M43.59,6.16a.52.52,0,0,1,.56.47.59.59,0,0,1,.55.44s.24,1.71.36,2.7c.4,0,.45.5.45.5s.12,1,.27,3.68c.5,0,.47.35.47.35v.86s.77.32,1.36.64a33.89,33.89,0,0,1,.3,4.37l.17.13s0,.27,0,.64a5.1,5.1,0,0,1-1,.13v.44s1.11,0,1.11,1.31c2.45.51,2.39,3.93,2.39,3.93V44.47c-.76,2-7,1.86-7,1.86h.09s-6.24.18-7-1.86V26.75s-.06-3.42,2.39-3.93c0-1.34,1.11-1.31,1.11-1.31v-.44a5.1,5.1,0,0,1-1-.13c0-.37,0-.64,0-.64l.17-.13a33.89,33.89,0,0,1,.3-4.37c.59-.32,1.36-.64,1.36-.64V14.3s0-.35.47-.35c.15-2.69.27-3.68.27-3.68s.05-.5.45-.5c.12-1,.36-2.7.36-2.7a.59.59,0,0,1,.55-.44.52.52,0,0,1,.56-.47Z"/><path class="b" d="M40.18,21.07a31.19,31.19,0,0,0,3.45.09,31.33,31.33,0,0,0,3.46-.09"/><path class="b" d="M39.19,20.3s.1.27,4.49.27,4.4-.27,4.4-.27"/><path class="b" d="M39.36,20.17s.46.27,4.27.27,4.28-.27,4.28-.27"/><path class="b" d="M39.66,15.8a26.47,26.47,0,0,0,4,.29,24.64,24.64,0,0,0,3.93-.29"/><path class="b" d="M41,15.16a9.93,9.93,0,0,0,2.66.15,8.57,8.57,0,0,0,2.57-.15"/><path class="b" d="M41.49,14s.29.27,2.19.27,2.1-.27,2.1-.27"/><path class="b" d="M43.12,6.63h1"/><line class="b" x1="42.21" y1="9.77" x2="45.06" y2="9.77"/><path class="a" d="M9.35,46.33s5.6.06,6.71-1.07c1.75-1.78,1.45-5.49,1.45-5.49V19.32a3,3,0,0,0-.77-2c-.8-.8-4.54-4.81-4.54-4.81v-.77a.52.52,0,0,0-.47-.33v-.29a1.45,1.45,0,0,0,1-.39c.29-.39.11-4.1-.33-4.63s-1.22-.8-2.94-.8-2.49.26-2.94.8-.62,4.24-.32,4.63a1.42,1.42,0,0,0,1,.39v.29a.52.52,0,0,0-.47.33v.77S3,16.53,2.2,17.33a3,3,0,0,0-.77,2V39.77s-.3,3.71,1.45,5.49C4,46.39,9.35,46.33,9.35,46.33Z"/><path class="c" d="M6.74,12.52a13.82,13.82,0,0,1,2.73-.25,13.82,13.82,0,0,1,2.73.25"/><path class="c" d="M7.21,11.42a21.82,21.82,0,0,1,2.26-.14,21.82,21.82,0,0,1,2.26.14"/><path class="c" d="M11.73,11.13v-.56a7.66,7.66,0,0,0-2.26-.2,7.66,7.66,0,0,0-2.26.2v.56"/><path class="c" d="M6.2,10.74s-.4-.58,3.27-.58,3.27.58,3.27.58"/><path class="c" d="M1.43,21.79a59.11,59.11,0,0,1,8-.37,59.11,59.11,0,0,1,8,.37"/><path class="c" d="M1.43,39.77a71.14,71.14,0,0,0,8,.56,71.14,71.14,0,0,0,8-.56"/><path class="d" d="M2.74,30.25v1.39H2.27V28.07H3.58a1.32,1.32,0,0,1,.92.3,1,1,0,0,1,.33.8,1,1,0,0,1-.32.8,1.43,1.43,0,0,1-.93.28Zm0-.39h.84a.82.82,0,0,0,.58-.18.63.63,0,0,0,.2-.51.66.66,0,0,0-.2-.51.74.74,0,0,0-.55-.2H2.74Z"/><path class="d" d="M8.07,31.17a1,1,0,0,1-.51.39,1.93,1.93,0,0,1-.75.13,1.56,1.56,0,0,1-.78-.2,1.4,1.4,0,0,1-.52-.58A2.07,2.07,0,0,1,5.32,30v-.31a1.83,1.83,0,0,1,.38-1.25,1.28,1.28,0,0,1,1-.44,1.33,1.33,0,0,1,.9.28,1.23,1.23,0,0,1,.42.81H7.6a.78.78,0,0,0-.84-.71.83.83,0,0,0-.72.33,1.65,1.65,0,0,0-.25,1V30a1.45,1.45,0,0,0,.28.95.88.88,0,0,0,.74.36,1.56,1.56,0,0,0,.46-.06.73.73,0,0,0,.33-.2v-.8H6.77v-.38h1.3Z"/><path class="d" d="M8.87,32H8.48L10,28.07h.39Z"/><path class="d" d="M12.1,31l1-2.95h.52l-1.33,3.57H11.9l-1.32-3.57h.51Z"/><path class="d" d="M16.72,31.17a1,1,0,0,1-.51.39,2,2,0,0,1-.75.13,1.53,1.53,0,0,1-.78-.2,1.4,1.4,0,0,1-.52-.58A1.93,1.93,0,0,1,14,30v-.31a1.88,1.88,0,0,1,.37-1.25A1.31,1.31,0,0,1,15.4,28a1.36,1.36,0,0,1,.9.28,1.23,1.23,0,0,1,.42.81h-.47a.78.78,0,0,0-.85-.71.83.83,0,0,0-.71.33,1.58,1.58,0,0,0-.25,1V30a1.45,1.45,0,0,0,.28.95.88.88,0,0,0,.74.36,1.6,1.6,0,0,0,.46-.06.79.79,0,0,0,.33-.2v-.8h-.83v-.38h1.3Z"/><path class="a" d="M27.25,46.33a22.58,22.58,0,0,0,4-.3c.69-.23.67-1.31.67-1.31V32.1s-.16-.76-.6-.76a1.05,1.05,0,0,0-.09-.48h.55v-.21h-.62v-.53h.58v-1h-.14v-8s.07-.27-.12-.27-1.33-.51-1.33-1.29v-.67s0-.16-.16-.16H24.92c-.14,0-.16.16-.16.16v.67c0,.78-1.15,1.29-1.34,1.29s-.11.27-.11.27v8h-.14v1h.58v.53h-.63v.21h.56a1,1,0,0,0-.1.48c-.43,0-.6.76-.6.76V44.72s0,1.08.67,1.31a22.73,22.73,0,0,0,4,.3Z"/><line class="c" x1="23.42" y1="20.89" x2="31.5" y2="20.89"/><line class="c" x1="23.31" y1="29.15" x2="31.62" y2="29.15"/><line class="c" x1="23.74" y1="30.12" x2="31.18" y2="30.12"/><line class="c" x1="23.58" y1="31.34" x2="31.34" y2="31.34"/><path class="c" d="M23,44.34s.2.5,4.65.5,4.31-.37,4.31-.37"/><path class="c" d="M23,32.48s1.14.13,4.48.13,4.48-.13,4.48-.13"/></svg>