<svg xmlns="http://www.w3.org/2000/svg" viewBox="0 0 52 52"><defs><style>.a,.b{fill:none;stroke:#fff;stroke-linecap:round;stroke-linejoin:round;}.a{stroke-width:0.75px;}.b{stroke-width:0.5px;}</style></defs><title>pods-mobile</title><path class="a" d="M26,46.9c5.9,0,6.2-3.5,6.2-3.5V16.8s-.3-9.5-1.7-10.6S26,5.1,26,5.1s-3.1,0-4.5,1.1-1.7,10.6-1.7,10.6V43.5S20.1,46.9,26,46.9Z"/><path class="b" d="M19.8,16.8a5,5,0,0,1,1.5-.1c.4.1,1,1.9,1,2.3v2.3H26"/><path class="b" d="M19.8,43.5h2.6s0-.7.1-1.7-.1-13.4-.1-18.7.7-17.6.7-17.6"/><path class="b" d="M32.2,43.5H29.6s0-.7-.1-1.7.1-13.4.1-18.7-.7-17.6-.7-17.6"/><path class="b" d="M32.2,16.8a5,5,0,0,0-1.5-.1c-.4.1-1,1.9-1,2.3v2.3H26"/><path class="b" d="M26,36.3s1.6,0,2.1-.9c.8-2.6,1.1-11.7.7-12.3s-2.8-.7-2.8-.7-2.3.1-2.8.7-.1,9.8.7,12.3C24.4,36.4,26,36.3,26,36.3Z"/><path class="b" d="M22.7,13.3s.2-.7,3.3-.7,3.3.7,3.3.7"/><circle class="b" cx="26" cy="30.7" r="0.3"/><circle class="b" cx="26" cy="32.2" r="0.3"/><circle class="b" cx="26" cy="33.6" r="0.3"/></svg>