<svg xmlns="http://www.w3.org/2000/svg" viewBox="0 0 52 52"><defs><style>.a{fill:#fff;}.b,.c{fill:none;stroke:#fff;stroke-miterlimit:10;}.b{stroke-width:0.5px;}.c{stroke-width:0.25px;}</style></defs><title>resistances-mobile</title><path class="a" d="M26.1,6.6h0m-.1,0c5.8,0,7.4.4,7.4.4l.3.4v4l-.5.2v1.1a1,1,0,0,1,.7.2v3.5h-.6V27.2h1.1v1.4h-.2c.1,0,.3.1.3.8a.86.86,0,0,1-.7.9V33l-.5.4v2c.2.5-1.5.5-1.5.5v8.6H28.4l-.4.9H24.1l-.3-1.1H20.4V35.7s-1.7,0-1.5-.5v-2l-.5-.4V30.1a.86.86,0,0,1-.7-.9c0-.7.3-.8.3-.8h-.2V27h1.1V16.4h-.6V12.9a1,1,0,0,1,.7-.2V11.6l-.5-.2v-4l.1-.4s1.6-.4,7.4-.4m.1,38.8h0m0-39.6h-.2a40.63,40.63,0,0,0-7.5.4l-.2.1-.2.2-.3.4-.2.2v4.8l.5.2a1.38,1.38,0,0,0-.4.3l-.2.2v4.6H18v9.3H16.9v2.3a1.48,1.48,0,0,0-.1.7,1.61,1.61,0,0,0,.7,1.4v2.6l.3.2.2.1v1.6a1.7,1.7,0,0,0,.1.7c.1.1.3.5,1.4.6v8.7h3.7l.2.5.2.5h4.9l.2-.5.2-.5h3.7V36.7c1.1-.1,1.3-.5,1.4-.6a.82.82,0,0,0,.1-.7V33.8l.2-.1.3-.2V30.9a1.92,1.92,0,0,0,.6-2.1V26.5H34.1V17.2h.6V12.6l-.2-.2a1.38,1.38,0,0,0-.4-.3l.5-.2V7.1l-.2-.2L34,6.5l-.1-.2-.2-.1a72.15,72.15,0,0,0-7.6-.4Z"/><line class="b" x1="20.3" y1="35.7" x2="31.7" y2="35.7"/><path class="c" d="M18.7,33.2s4.2.2,7.3.2,7.3-.2,7.3-.2"/><line class="c" x1="18.2" y1="30.1" x2="33.8" y2="30.1"/><line class="b" x1="17.9" y1="28.5" x2="34.1" y2="28.5"/><line class="b" x1="18.7" y1="27.1" x2="33.3" y2="27.1"/><path class="b" d="M18.7,16.4s3.2-.2,7.3-.2,7.3.2,7.3.2"/><path class="b" d="M18.7,12.6s2.8-.3,7.3-.3,7.3.3,7.3.3"/><path class="c" d="M18.2,11.4s1.1-.3,7.8-.3,7.8.3,7.8.3"/><path class="c" d="M18.2,11s1.1-.3,7.8-.3,7.8.3,7.8.3"/><path class="c" d="M18.2,10.7s1.1-.3,7.8-.3,7.8.3,7.8.3"/><path class="c" d="M18.2,10.4s1.1-.3,7.8-.3,7.8.3,7.8.3"/><path class="c" d="M18.2,10s1.1-.3,7.8-.3,7.8.3,7.8.3"/><path class="c" d="M18.2,9.7s1.1-.3,7.8-.3,7.8.3,7.8.3"/><path class="c" d="M18.2,9.3S19.3,9,26,9s7.8.3,7.8.3"/><path class="c" d="M18.2,9s1.1-.3,7.8-.3,7.8.3,7.8.3"/><path class="c" d="M18.2,8.7s1.1-.3,7.8-.3,7.8.3,7.8.3"/><path class="c" d="M18.2,8.3S19.3,8,26,8s7.8.3,7.8.3"/><path class="c" d="M18.2,8s1.1-.3,7.8-.3,7.8.3,7.8.3"/><path class="c" d="M18.2,7.6s1.1-.3,7.8-.3,7.8.3,7.8.3"/><path class="c" d="M18.2,7.3S19.3,7,26,7s7.8.3,7.8.3"/><path class="c" d="M18.2,32.9s2.4.2,7.8.2,7.8-.2,7.8-.2"/><path class="c" d="M18.2,32.4s2.4.2,7.8.2,7.8-.2,7.8-.2"/><path class="c" d="M18.2,32s2.4.2,7.8.2,7.8-.2,7.8-.2"/><path class="c" d="M18.2,31.6s2.4.2,7.8.2,7.8-.2,7.8-.2"/><path class="c" d="M18.2,31.2s2.4.2,7.8.2,7.8-.2,7.8-.2"/><path class="c" d="M18.2,30.7s2.4.2,7.8.2,7.8-.2,7.8-.2"/><path class="c" d="M18.2,30.3s2.4.2,7.8.2,7.8-.2,7.8-.2"/><rect class="b" x="23.5" y="38.2" width="5.1" height="5.4"/><line class="b" x1="23.2" y1="44.4" x2="28.5" y2="44.4"/><path class="b" d="M28,24.3a2,2,0,1,1-2-2A2,2,0,0,1,28,24.3Z"/></svg>