<svg xmlns="http://www.w3.org/2000/svg" viewBox="0 0 62.5 52"><defs><style>.a{fill:#fff;}.b{fill:none;stroke:#fff;stroke-miterlimit:10;stroke-width:0.75px;}</style></defs><title>sels-de-nicotine-mobile</title><path class="a" d="M25.4,9v2.9h3.3V9h.9v6.8h-.9V12.6H25.4v3.2h-.9V9Z"/><polygon class="a" points="38.2 19.2 31.3 16.3 32.7 14.1 38.2 19.2"/><path class="a" d="M47,27.3V20.5h1L50.2,24a16.37,16.37,0,0,1,1.2,2.2h0a24.39,24.39,0,0,1-.1-2.8V20.5h.8v6.8h-.9L49,23.8c-.5-.8-.9-1.5-1.3-2.3h0a24.39,24.39,0,0,1,.1,2.8v2.9H47Z"/><path class="a" d="M12.7,48.5V41.7h1l2.2,3.5a16.37,16.37,0,0,1,1.2,2.2h0a25.28,25.28,0,0,1-.1-2.8V41.7h.8v6.8h-.9L14.7,45c-.5-.8-.9-1.5-1.3-2.3h0a24.39,24.39,0,0,1,.1,2.8v2.9h-.8Z"/><polyline class="b" points="19.6 42.2 26.1 38.3 26.1 25.4 15.3 18.9 4.4 25.4 4.4 38.3 10.9 42.2"/><line class="b" x1="6.6" y1="26.6" x2="6.6" y2="36.9"/><line class="b" x1="15.3" y1="21.4" x2="24.2" y2="26.6"/><line class="b" x1="24.2" y1="36.9" x2="18.5" y2="40.3"/><polyline class="b" points="44.9 22.1 37.7 18.9 39.1 6.1 51.5 3.5 58.1 14.5 53.1 20"/><line class="b" x1="26.1" y1="25.4" x2="37.7" y2="18.9"/><line class="b" x1="50.4" y1="28.8" x2="51.7" y2="35.9"/></svg>