<svg xmlns="http://www.w3.org/2000/svg" viewBox="0 0 52 52"><defs><style>.a{fill:#fff;}.b,.c{fill:none;stroke:#fff;stroke-linecap:round;stroke-linejoin:round;}.b{stroke-width:0.75px;}.c{stroke-width:0.5px;}</style></defs><title>tanks-mobile</title><path class="a" d="M31.7,4.9c.7,0,.8.8.8.8V13h.3a2.47,2.47,0,0,0,1.6.8h.8c.2,0,.2.3.2.3v1.1s-.3.2-.3,1c0,1.3.3,1.4.3,1.4v25c-.4.9-8.5,1-9.4,1h-.2c-.8,0-9,0-9.4-1v-25s.3-.1.3-1.4c0-.8-.3-1-.3-1V14.1s0-.3.2-.3h.8A2.47,2.47,0,0,0,19,13h.3V5.7a.78.78,0,0,1,.8-.8H31.7m0-.8H20.2a1.54,1.54,0,0,0-1.5,1.5v6.7l-.1.1a1.61,1.61,0,0,1-1.1.5h-.8a1,1,0,0,0-1,1.1v1.1a.76.76,0,0,0,.2.5,2,2,0,0,1,.1.5,3.14,3.14,0,0,1-.1.9.76.76,0,0,0-.2.5v25a.37.37,0,0,0,.1.3c.2.5.6,1.4,10.1,1.4h.2c9.4,0,9.9-1,10.1-1.4,0-.1.1-.2.1-.3v-25a.76.76,0,0,0-.2-.5,4.13,4.13,0,0,1-.1-.9c0-.3,0-.4.1-.5a.76.76,0,0,0,.2-.5V14a1,1,0,0,0-1-1.1h-.8a2.11,2.11,0,0,1-1.1-.5l-.1-.1V5.7a1.64,1.64,0,0,0-1.6-1.6Z"/><path class="b" d="M28.6,43.8v2.5s0,.2-.3.3c-.5.1-2.5.1-2.5.1s-2,0-2.5-.1c-.3-.1-.3-.3-.3-.3V43.8"/><polyline class="b" points="28.1 46.6 28.1 47.1 25.8 47.1 23.5 47.1 23.5 46.6"/><path class="c" d="M35.4,17.7v25c-.4,1-9.4,1-9.4,1h0s-9,0-9.4-1v-25Z"/><path class="c" d="M35.4,38.1c-1.1.6-9.4.8-9.4.8s-8.3-.1-9.4-.8"/><path class="c" d="M35.4,36.7c-.9.8-9.4.7-9.4.7s-8.5.1-9.4-.7"/><path class="c" d="M35.4,36.4c-1.2.7-9.4.7-9.4.7s-8.3,0-9.4-.7c0,0-.3-.6,1.9-.6V28.5a1.18,1.18,0,0,1,.4-1c.5-.5,3.3-3.4,3.3-3.4s.2-.1.2-.6v-2a38.6,38.6,0,0,1-4.6-.2v-1a6.88,6.88,0,0,1-1.3-.2"/><path class="c" d="M16.5,36.4c1.2.7,9.4.7,9.4.7s8.3,0,9.4-.7c0,0,.3-.6-1.9-.6V28.5a1.18,1.18,0,0,0-.4-1c-.5-.5-3.3-3.4-3.3-3.4s-.2-.1-.2-.6v-2a38.6,38.6,0,0,0,4.6-.2v-1a6.88,6.88,0,0,0,1.3-.2"/><line class="c" x1="16.6" y1="15.2" x2="35.4" y2="15.2"/><line class="c" x1="16.6" y1="19.2" x2="35.5" y2="19.2"/><line class="c" x1="19.5" y1="13" x2="32.5" y2="13"/><line class="c" x1="22.5" y1="21.6" x2="29.5" y2="21.6"/><line class="c" x1="17.9" y1="20.4" x2="34.1" y2="20.4"/><path class="c" d="M18.5,35.8s-.4.6,7.5.6,7.5-.6,7.5-.6"/><path class="c" d="M33.5,34.1s-.9,0-1.2.6-.4,1.5.2,1.4"/><path class="c" d="M32.4,41.2a.67.67,0,0,1-.6.7,116.11,116.11,0,0,1-11.8,0,.56.56,0,0,1-.6-.7V41c0-.4.3-.6.7-.6a114.15,114.15,0,0,0,11.7,0,.67.67,0,0,1,.7.6C32.4,41,32.4,41.1,32.4,41.2Z"/><path class="c" d="M26.4,17.3h2.1a1.12,1.12,0,0,0,.4-1H24a1.56,1.56,0,0,0,.4,1Z"/><line class="c" x1="17.6" y1="13.8" x2="34.4" y2="13.8"/></svg>